<svg width="127" height="46" viewBox="0 0 127 46" fill="none" xmlns="http://www.w3.org/2000/svg">
<path d="M126.947 22.806C127.003 14.3216 125.193 9.62687 123.553 7.25124C124.119 6.51592 124.458 6.06342 124.458 6.06342C124.628 5.89373 124.911 5.66748 125.476 5.55436C125.646 4.4231 126.042 3.12216 126.042 3.12216C126.042 3.12216 124.911 3.91404 123.893 4.36654C123.949 4.93217 123.836 5.27154 123.666 5.49779C123.666 5.55436 123.383 5.89373 122.931 6.45936C122.252 5.61092 121.404 4.8756 120.216 4.19685C119.933 4.02716 119.594 3.85748 119.311 3.74435C119.311 3.29185 119.198 2.83935 118.858 2.55653C118.858 2.27372 118.632 1.99091 118.349 1.87778C118.067 1.82122 117.671 1.93434 117.444 2.10403C116.992 2.1606 116.539 2.38685 116.257 2.78278C115.295 2.55653 114.164 2.44341 112.863 2.33028C112.693 1.70809 112.297 1.25559 111.788 1.02934C111.675 0.746528 111.279 0.463715 110.94 0.463715C110.6 0.463715 110.261 0.746528 110.091 1.02934C109.582 1.25559 109.186 1.70809 109.017 2.33028C107.716 2.38685 106.584 2.55653 105.623 2.78278C105.283 2.44341 104.887 2.21716 104.435 2.10403C104.209 1.93434 103.813 1.76466 103.53 1.87778C103.247 1.99091 103.021 2.33028 103.021 2.55653C102.738 2.83935 102.568 3.29185 102.568 3.74435C102.229 3.91404 101.946 4.02716 101.663 4.19685C100.476 4.8756 99.6837 5.55436 99.0049 6.45936C98.609 5.9503 98.3827 5.61092 98.3827 5.61092C98.2131 5.38467 98.0999 5.04529 98.1565 4.47967C97.1384 4.02716 96.0071 3.23529 96.0071 3.23529C96.0071 3.23529 96.403 4.53623 96.5727 5.66748C97.1384 5.72404 97.4212 6.00686 97.5909 6.17655C97.5909 6.17655 97.9302 6.57248 98.3827 7.25124C96.7424 9.57031 94.8759 14.3216 94.9324 22.8625C94.9324 23.6544 94.593 31.0076 97.0252 35.9851C97.3081 36.4941 98.0434 37.8517 99.3443 39.0395C100.419 40.0576 101.72 40.7929 103.191 41.1889C103.247 41.1889 103.304 41.2454 103.36 41.2454C105.17 41.7545 106.697 41.4717 107.376 41.0757L107.263 41.302C107.263 41.3585 107.207 41.4717 107.207 41.5282C106.867 42.4332 107.093 43.3948 108.338 43.5079C108.677 43.5645 109.017 43.5645 109.469 43.7342C109.752 43.8473 110.091 44.1301 110.487 44.4695C110.657 44.6392 110.94 45.0351 111.109 45.3745C111.279 45.0351 111.562 44.6392 111.732 44.4695C112.127 44.0735 112.41 43.8473 112.75 43.7342C113.202 43.5079 113.542 43.5079 113.881 43.5079C115.125 43.3382 115.352 42.4332 115.012 41.5282C115.012 41.4717 114.956 41.3585 114.956 41.302C114.956 41.2454 114.842 41.0757 114.842 41.0757C115.691 41.5848 118.349 41.9807 120.895 40.3404C122.648 39.2657 123.893 38.0213 124.911 35.9851C127.286 31.0076 126.947 23.4847 126.947 22.806ZM115.747 15.9619C115.691 16.0185 115.691 16.075 115.578 16.1316C115.465 16.1881 115.295 16.2447 115.182 16.2447C115.012 16.2447 114.899 16.1881 114.786 16.0185C114.503 15.6225 114.333 15.2266 113.994 14.4913C113.711 13.8691 113.768 13.9822 113.372 13.0206C113.202 12.5681 112.863 11.8328 112.693 11.6066C112.41 11.2106 111.901 10.8147 111.675 10.7581C111.449 10.645 111.109 10.5884 110.77 10.5884C110.148 10.5319 109.526 10.645 109.299 10.7016C109.073 10.7581 108.734 10.8712 108.564 11.0975C108.564 11.1541 108.451 11.2106 108.338 11.2672C108.055 11.3803 107.998 11.3803 107.659 11.6631C107.093 12.0591 107.207 12.6813 107.489 12.9641C107.489 12.7944 107.489 12.6813 107.546 12.6813C107.602 12.6813 107.829 12.8509 108.281 12.7944C108.564 12.7378 108.79 13.2469 108.79 13.2469L108.847 13.1338C108.847 13.1338 108.96 13.4166 109.017 13.4731L109.073 13.4166C109.186 13.5297 109.299 13.5863 109.356 13.8125C109.356 13.9822 109.299 14.1519 109.073 14.3216C109.017 14.3781 108.507 14.7741 107.998 15.3397C107.716 15.6225 107.602 15.7922 107.32 16.075C107.207 16.2447 107.037 16.3013 106.924 16.3013H106.867C106.697 16.3013 106.584 16.1881 106.528 16.1316C106.471 16.075 103.813 12.5681 102.568 10.8712C104.887 8.60874 108.677 8.26937 109.639 8.32593C109.865 8.32593 110.091 8.49562 109.808 8.89155C110.035 9.00468 110.77 8.89155 111.053 8.6653C111.336 8.94812 112.127 9.00468 112.297 8.89155C112.014 8.55218 112.241 8.32593 112.467 8.32593C113.428 8.26937 117.048 8.43905 119.537 10.9278C118.293 12.6247 116.652 14.6609 115.747 15.9619Z" fill="white"/>
<path d="M126.438 20.4869C125.703 21.0525 125.08 21.6181 122.874 22.9191L122.309 23.2585V22.8625C122.309 22.806 122.478 17.2063 119.763 12.3984C119.594 12.6247 119.028 13.36 118.406 14.0953C118.745 14.0387 119.085 14.1519 119.424 14.4347C119.99 15.0003 120.895 16.3012 121.46 17.7153C121.743 18.5638 121.969 19.7516 121.913 20.7697C121.913 20.7697 121.573 26.4825 120.951 31.9125C120.386 36.8901 120.046 37.5123 120.046 37.5123C119.65 37.0598 119.537 36.4941 119.424 36.1548L119.368 36.2113C119.368 36.2113 119.028 35.7022 118.802 34.7407C118.576 33.6094 118.519 31.6297 118.576 30.6682C118.576 30.6682 118.576 30.3854 118.349 29.9329C118.236 29.7066 118.18 29.4804 118.123 29.2541C117.784 27.7269 117.048 27.2744 116.709 26.8219C116.257 26.2563 115.917 25.6341 115.691 25.1816C115.691 25.1816 115.691 25.1816 115.634 25.2382C115.408 25.4644 115.182 25.7472 115.182 25.8603C115.295 26.7653 115.352 27.3875 115.238 27.84C115.182 27.7835 115.125 27.7269 115.069 27.6703C115.125 28.236 114.842 28.9147 115.012 29.4804L114.673 29.4238C114.673 29.4804 114.673 29.4804 114.729 29.5369C114.786 29.5935 114.843 29.65 114.899 29.7066L115.012 29.7632C115.069 29.7632 115.125 29.8197 115.352 29.8763C115.578 29.4238 115.408 29.0279 115.182 28.745C115.012 28.5188 115.238 28.236 115.578 28.4057C116.03 28.5753 116.483 28.8582 116.992 29.3672C117.727 30.046 117.953 30.7247 117.784 30.8379C117.671 30.951 117.558 30.8944 117.444 30.8944V30.951C117.388 31.0641 117.275 31.1772 117.105 31.2338C117.048 31.3469 116.879 31.4035 116.709 31.4035C116.539 31.4035 116.313 31.2904 116.257 31.2904C116.2 31.2904 116.143 31.2338 116.087 31.1772C116.03 31.2338 115.974 31.2338 115.974 31.2904C116.539 32.0822 117.671 33.3266 118.463 34.7407C119.028 35.7588 119.311 36.6073 119.311 36.6073C119.311 36.6073 119.028 36.7204 118.632 36.6073C118.745 37.0032 118.858 37.3426 118.802 37.6254C118.519 37.6254 118.123 37.6254 117.671 37.3426C117.671 37.3991 117.671 37.4557 117.727 37.5123C118.067 37.7385 118.463 38.0779 118.632 38.191C116.879 38.9829 114.39 38.6435 114.333 38.6435C114.22 38.6435 114.107 38.5869 113.994 38.5869C113.994 38.6435 113.938 38.7001 113.938 38.7566C114.107 39.1526 114.503 40.1141 114.56 40.2838C115.634 40.7929 116.653 41.1323 118.236 40.8495C118.236 40.8495 118.519 40.8495 119.198 40.6232C119.877 40.397 121.178 39.6616 122.139 38.7001C123.383 37.5688 124.119 36.3244 124.345 35.8719C126.268 32.1388 126.551 26.5957 126.551 24.3331C126.551 23.5978 126.551 23.2019 126.551 23.1453C126.494 22.2403 126.438 21.0525 126.438 20.4869Z" fill="#EB0029"/>
<path d="M107.772 40.1142C107.829 39.8879 108.168 39.096 108.394 38.6435C108.394 38.587 108.338 38.4738 108.338 38.4173C108.112 38.4738 107.885 38.4738 107.602 38.5304C107.433 38.5304 105.057 38.9263 103.36 38.0779C103.587 37.9082 103.982 37.6254 104.492 37.286C104.492 37.2295 104.492 37.2295 104.492 37.1729C104.096 37.3992 103.7 37.4557 103.36 37.4557C103.36 37.1729 103.417 36.8335 103.53 36.4376C103.134 36.5507 102.851 36.4376 102.851 36.4376C102.851 36.4376 103.134 35.5891 103.7 34.571C104.209 33.6095 104.944 32.7045 105.566 31.9126C105.623 31.6298 105.849 31.3469 105.906 31.2904L106.019 31.1773C105.962 31.1207 105.906 31.0641 105.792 31.0076C105.736 31.0641 105.679 31.1207 105.623 31.1207C105.397 31.2338 105.283 31.2338 105.17 31.2338C104.944 31.2338 104.831 31.1773 104.774 31.0641C104.605 31.0076 104.492 30.951 104.435 30.7813V30.7248C104.322 30.7813 104.209 30.7813 104.096 30.6682C103.926 30.5551 104.152 29.8763 104.887 29.1976C105.397 28.6885 105.849 28.4622 106.302 28.236C106.641 28.0663 106.867 28.4057 106.697 28.5754C106.471 28.8016 106.358 29.2541 106.528 29.7066C106.754 29.6501 106.811 29.5935 106.867 29.5935C106.924 29.5369 107.037 29.5369 107.15 29.3673C107.15 29.3673 107.15 29.3107 107.207 29.3107L106.924 29.3673C107.093 28.9713 106.867 28.0663 106.98 27.4441C106.924 27.5007 106.811 27.5572 106.754 27.5572C106.641 26.9916 106.641 26.1432 106.697 25.6907C106.697 25.5776 106.528 25.4079 106.302 25.1816C106.132 25.6341 105.849 26.1432 105.34 26.7654C104.944 27.2179 104.265 27.6704 103.926 29.1976C103.869 29.4238 103.756 29.6501 103.7 29.8763C103.473 30.3854 103.473 30.6116 103.473 30.6116C103.473 31.5732 103.473 33.5529 103.247 34.6841C103.021 35.6457 102.682 36.1548 102.682 36.1548L102.625 36.0982C102.512 36.4376 102.399 37.0032 102.003 37.4557C102.003 37.4557 101.663 36.8335 101.098 31.856C100.419 26.426 100.136 20.7132 100.136 20.7132C100.08 19.695 100.306 18.5072 100.589 17.6588C101.098 16.3013 102.059 14.9438 102.625 14.3781C102.964 14.0388 103.36 13.9822 103.756 14.0388C103.643 13.8691 103.53 13.756 103.53 13.756C103.134 13.2469 102.738 12.7378 102.342 12.2288C99.6837 16.9235 99.7402 22.5232 99.7402 22.5797V23.2019L99.2878 22.9757C97.1949 21.7879 96.2899 21.0525 95.6112 20.4869C95.5546 21.0525 95.498 22.9757 95.498 22.9757C95.498 23.0322 95.498 23.4282 95.498 24.1635C95.498 26.426 95.894 31.9126 97.704 35.7023C97.9302 36.1548 98.6656 37.4557 99.8534 38.587C100.815 39.492 101.89 40.1142 103.077 40.4535C103.134 40.4535 103.304 40.5101 103.36 40.5667C104.774 40.9626 106.302 40.906 107.772 40.1142Z" fill="#EB0029"/>
<path d="M108.903 41.5282C108.96 40.8495 109.017 39.8879 109.186 39.0394C108.96 39.2657 108.79 39.3788 108.79 39.3788C108.734 39.3788 108.734 39.3223 108.677 39.2657C108.281 40.2838 107.659 41.6979 107.659 41.7545C107.942 41.4716 108.394 41.302 108.903 41.5282Z" fill="#EB0029"/>
<path d="M112.976 42.1504C113.032 41.4716 112.75 39.6051 112.58 38.5304C112.58 38.5304 112.523 38.4738 112.523 38.4172C112.467 38.3607 112.467 38.3041 112.41 38.2476C112.354 38.4738 112.297 38.7001 112.184 38.9263C112.071 39.2091 111.901 39.4354 111.845 39.4354C111.788 39.4354 111.336 39.096 110.996 38.3607C110.657 39.0394 110.204 39.3788 110.148 39.3788C110.091 39.3788 109.922 39.096 109.808 38.8698C109.752 38.7566 109.695 38.6435 109.695 38.5304C109.526 39.6616 109.299 41.4151 109.299 42.0938C108.281 41.4151 107.659 42.0938 107.829 42.5463C107.829 42.6029 107.885 42.6029 107.885 42.6595C107.998 42.8291 108.168 42.8857 108.394 42.9423C108.734 42.9423 109.186 42.9988 109.695 43.2251C110.148 43.4513 110.657 43.7907 111.166 44.4129C111.675 43.7907 112.184 43.4513 112.637 43.2251C113.146 42.9988 113.598 42.9423 113.937 42.9423C114.164 42.9423 114.333 42.8291 114.447 42.6595C114.447 42.6029 114.503 42.6029 114.503 42.5463C114.616 42.1504 113.994 41.4716 112.976 42.1504Z" fill="#EB0029"/>
<path d="M113.315 39.3223C113.315 39.3223 113.146 39.2657 112.976 39.096C113.146 39.8879 113.259 40.8495 113.259 41.5282C113.824 41.302 114.22 41.4716 114.503 41.6979C114.503 41.6979 113.881 40.0576 113.485 39.096C113.428 39.2091 113.372 39.3223 113.315 39.3223Z" fill="#EB0029"/>
<path d="M118.18 21.6182C118.123 22.0141 117.954 22.1272 117.671 22.3535C117.501 21.7878 117.388 21.3919 118.18 19.7516C117.671 21.3353 117.897 21.8444 117.897 21.8444C117.897 21.8444 118.067 21.7878 118.18 21.6182ZM117.331 20.5435C117.331 20.5435 117.162 20.2041 117.614 18.79C116.766 20.091 117.105 20.996 117.105 20.996C117.105 20.996 117.558 20.7697 117.671 20.2607C117.558 20.4869 117.331 20.5435 117.331 20.5435ZM120.442 18.1678C120.273 19.5819 120.16 19.8647 120.046 20.091C119.933 20.0344 119.82 19.695 119.82 19.695C119.764 19.9213 119.82 20.3172 120.046 20.5435C120.329 20.2041 120.555 19.4122 120.442 18.1678ZM120.16 17.2628C119.933 18.79 119.707 19.186 119.537 19.4122C119.424 19.2991 119.311 18.9597 119.311 18.9597C119.255 19.2425 119.311 19.695 119.537 19.9213C119.877 19.5253 120.216 18.6769 120.16 17.2628ZM119.028 18.7335C118.859 18.281 118.915 17.885 118.915 17.885C118.689 18.5072 118.745 19.0163 118.972 19.2425C119.311 18.8466 119.877 17.7153 119.764 16.6406C119.537 17.9416 119.198 18.5072 119.028 18.7335ZM118.463 17.885C118.35 17.4325 118.406 16.8103 118.406 16.8103C118.123 17.376 118.18 18.1678 118.35 18.4506C118.745 18.1113 119.311 17.0931 119.311 16.0185C118.972 17.2628 118.632 17.6588 118.463 17.885ZM120.329 20.4869C120.329 20.8263 120.612 20.996 120.612 20.996C120.612 20.996 121.065 20.3738 120.895 19.2425C120.782 20.3172 120.555 20.6566 120.555 20.6566C120.555 20.6566 120.386 20.6 120.329 20.4869ZM120.895 20.996C120.895 21.2788 121.121 21.4485 121.121 21.4485C121.121 21.4485 121.517 20.8828 121.291 19.8647C121.234 20.7697 121.008 21.1091 121.008 21.1091C121.008 21.1091 120.895 21.0525 120.895 20.996ZM101.89 20.1475C101.72 19.9213 101.607 19.6385 101.494 18.2244C101.381 19.4688 101.607 20.2607 101.89 20.6C102.116 20.3738 102.173 20.0344 102.116 19.7516C102.116 19.7516 102.059 20.0344 101.89 20.1475ZM102.399 19.4688C102.229 19.186 102.003 18.8466 101.777 17.3194C101.72 18.7335 102.116 19.5819 102.455 19.9778C102.682 19.7516 102.738 19.2991 102.682 19.0163C102.682 19.0163 102.569 19.3556 102.399 19.4688ZM102.964 18.79C102.795 18.5638 102.399 17.9981 102.173 16.6972C102.116 17.7719 102.625 18.9597 102.964 19.2991C103.191 19.0728 103.247 18.5638 103.021 17.9416C103.078 17.9416 103.078 18.3941 102.964 18.79ZM103.53 17.9416C103.304 17.7153 102.964 17.376 102.625 16.075C102.682 17.1497 103.191 18.1678 103.587 18.5072C103.756 18.2244 103.813 17.4325 103.53 16.8669C103.53 16.8103 103.587 17.4891 103.53 17.9416ZM101.381 20.7132C101.381 20.7132 101.154 20.3738 101.041 19.2991C100.872 20.4303 101.324 21.0525 101.324 21.0525C101.324 21.0525 101.607 20.8263 101.607 20.5435C101.607 20.6 101.381 20.7132 101.381 20.7132ZM100.928 21.1657C100.928 21.1657 100.702 20.8263 100.645 19.9213C100.476 20.8828 100.815 21.505 100.815 21.505C100.815 21.505 101.098 21.3353 101.041 21.0525C101.041 21.1091 100.928 21.1657 100.928 21.1657ZM104.096 21.9575C104.096 21.9575 103.869 21.8444 103.756 21.6747C103.813 22.0707 103.983 22.1838 104.265 22.41C104.435 21.8444 104.548 21.4485 103.756 19.8082C104.322 21.4485 104.096 21.9575 104.096 21.9575ZM104.605 20.6C104.605 20.6 104.379 20.5435 104.209 20.3738C104.322 20.8828 104.774 21.1091 104.774 21.1091C104.774 21.1091 105.17 20.2041 104.265 18.9031C104.831 20.2041 104.605 20.6 104.605 20.6ZM108.508 27.2744C108.621 26.5391 108.225 25.9169 108.168 25.6341C108.112 25.7472 108.112 25.9735 108.112 25.9735C107.829 25.6907 107.772 25.2382 107.716 25.0685C107.659 25.5775 107.489 25.8038 107.433 26.03C107.546 26.03 107.659 25.9735 107.772 25.9169C107.829 26.4825 108.338 26.6522 108.508 27.2744ZM113.711 26.03C113.711 26.03 113.711 25.8038 113.655 25.6907C113.598 25.9735 113.202 26.5957 113.315 27.331C113.485 26.7088 113.994 26.5391 114.107 25.9735C114.22 26.03 114.334 26.0866 114.447 26.0866C114.39 25.8604 114.22 25.6341 114.164 25.125C114.051 25.2382 113.994 25.7472 113.711 26.03ZM109.865 25.2947C109.809 25.0685 109.639 24.22 109.356 23.8807C109.243 24.5029 109.639 25.0685 109.865 25.2947ZM111.845 26.0866C111.958 25.7472 112.297 25.4079 112.241 24.3897C111.958 24.6725 111.788 25.6907 111.845 26.0866ZM111.223 26.4825C111.392 26.03 111.392 25.521 111.166 25.2947C111.053 25.7472 111.053 26.1432 111.223 26.4825ZM110.714 25.2382C110.883 24.7291 110.827 24.1635 110.6 23.8807C110.487 24.3897 110.487 24.8422 110.714 25.2382ZM114.164 20.8263C113.881 21.2222 113.768 22.1272 113.711 22.41C113.768 22.3535 114.334 21.0525 114.164 20.8263ZM114.164 19.4122C114.164 19.4122 114.673 18.5638 114.39 18.0547C114.051 18.1113 114.164 19.4122 114.164 19.4122ZM112.75 21.505C112.75 21.505 113.542 20.7697 113.485 19.8647C113.259 20.4869 112.75 20.7697 112.75 20.7697C112.75 20.7697 112.467 20.6 112.354 20.2041C112.241 21.0525 112.75 21.505 112.75 21.505ZM114.277 20.4303C114.503 20.091 114.786 19.6385 114.56 19.3556C114.39 19.6385 114.334 19.9778 114.277 20.4303ZM111.901 24.0504C112.015 23.7675 112.354 23.1454 112.297 22.5232C111.958 22.7494 111.845 23.6544 111.901 24.0504ZM112.976 23.0888C113.429 22.5232 113.655 21.901 113.485 21.2222C113.089 21.8444 113.089 22.4666 112.976 23.0888ZM112.015 21.1091C111.901 21.5616 111.675 21.8444 111.336 22.1838C111.223 22.0707 111.053 21.901 110.883 21.505C110.827 22.2403 111.223 22.6929 111.449 22.8625C111.619 22.6929 112.128 22.0141 112.015 21.1091ZM109.978 22.9757C109.865 22.9757 109.413 22.5232 109.3 22.2403C109.356 22.6363 109.922 23.4847 110.205 23.6544C110.318 23.4847 110.657 22.8625 110.318 21.7878C110.261 22.4666 110.148 22.806 109.978 22.9757ZM107.32 17.885C107.263 17.4891 107.716 17.1497 107.546 16.5841C107.094 17.1497 107.207 17.6022 107.32 17.885ZM108.225 22.2969C108.508 22.7494 108.677 22.9191 108.904 23.1454C108.564 22.6363 108.338 21.7878 107.999 21.505C107.999 21.6182 108.112 22.0141 108.225 22.2969ZM107.999 20.2607C107.829 20.996 108.564 21.7313 108.564 21.7313C108.621 21.7878 108.621 20.8828 107.999 20.2607ZM108.564 18.8466C108.564 19.186 108.564 19.4688 108.508 19.8082C108.281 19.7516 108.168 19.6385 108.055 19.4688C108.168 19.9213 108.734 20.3738 108.79 20.4869C108.79 19.9778 108.847 19.2425 108.564 18.8466ZM108.225 16.9235C108.451 16.1881 108.847 15.7356 109.017 15.2831C108.225 15.8488 108.112 16.6972 108.225 16.9235ZM107.603 20.2041C107.489 19.5819 107.546 19.1294 107.207 18.5638C107.094 19.2991 107.489 20.1475 107.603 20.2041ZM109.469 17.7719C108.96 18.3941 109.752 19.186 109.752 19.186C109.695 19.186 109.809 17.9981 109.469 17.7719ZM109.809 16.0185C109.073 16.5841 109.413 17.0931 109.526 17.376C109.695 16.8669 109.752 16.6972 109.809 16.0185ZM110.261 21.1091C110.374 20.8263 110.77 20.3172 110.544 19.4122C110.487 20.091 110.035 20.3738 110.035 20.3738C110.035 20.3738 109.809 20.2607 109.582 19.8082C109.695 20.6 110.035 20.8828 110.261 21.1091ZM114.107 16.1316C114.051 16.5275 114.56 17.4891 114.56 17.6022C114.56 17.4891 114.843 16.6972 114.107 16.1316ZM113.089 14.4347C113.033 14.7741 113.598 15.3397 113.598 15.3397C113.598 15.3397 113.655 14.6609 113.089 14.4347ZM113.938 17.2063C113.768 17.9981 113.429 18.281 113.429 18.281C113.429 18.281 113.146 18.0547 112.92 17.7719C112.92 18.3941 113.429 19.0163 113.429 19.0163C113.429 19.0163 114.107 18.5072 113.938 17.2063ZM112.297 15.7356C112.015 16.075 112.297 16.6972 112.467 17.3194C112.637 16.98 112.806 16.0185 112.297 15.7356ZM112.58 14.7741C112.58 14.4913 112.467 13.9822 111.845 13.8691C111.788 14.265 112.354 14.4347 112.58 14.7741ZM111.845 13.5863C112.015 13.7559 112.467 13.8691 112.75 14.0953C112.693 13.6994 112.297 13.4166 111.845 13.5863ZM111.223 15.4528C110.77 15.9619 111.053 16.3578 111.053 16.3578C111.053 16.3578 111.619 15.7356 111.223 15.4528ZM111.901 20.1475C111.901 20.1475 112.467 19.5819 112.524 18.5072C112.184 19.0728 111.845 19.3556 111.845 19.3556C111.845 19.3556 111.562 19.1294 111.279 18.8466C111.279 19.5819 111.901 20.2041 111.901 20.1475ZM111.053 17.1497C110.544 17.9416 111.053 18.7335 111.053 18.7335C111.053 18.6769 111.392 17.6022 111.053 17.1497ZM111.223 11.6631C111.336 11.7763 111.788 12.0025 112.071 12.2288C112.015 11.8328 111.675 11.6066 111.223 11.6631ZM111.449 12.1156C111.166 11.8328 110.827 11.7197 110.657 11.6631C110.883 11.8894 111.11 12.1156 111.449 12.1156ZM112.354 12.8509C112.354 12.7944 112.128 12.455 111.675 12.3984C111.788 12.5116 111.845 12.7378 111.901 12.7944C111.788 12.8509 111.562 12.8509 111.505 12.8509C111.675 13.0206 112.015 13.0206 112.354 12.8509ZM108.338 11.7763C108.281 11.7763 108.281 11.9459 108.394 11.9459C108.508 11.9459 108.564 11.8328 108.564 11.8328C108.564 11.8328 108.395 11.7197 108.338 11.7763ZM112.241 4.08373C112.071 3.9706 112.015 3.91404 111.845 3.80091C111.732 3.91404 111.562 4.02716 111.449 4.08373C111.562 4.19685 111.675 4.25341 111.845 4.36654C112.015 4.25341 112.071 4.19685 112.241 4.08373ZM109.865 11.4369C109.865 11.4369 109.922 11.55 109.922 11.6631C109.922 11.8328 109.809 11.9459 109.582 12.0025C109.356 12.0591 109.073 11.8894 109.073 11.6631C109.073 11.6066 109.073 11.4934 109.13 11.4369C109.073 11.4369 109.017 11.4934 108.96 11.6066C108.904 11.6631 108.847 11.6631 108.734 11.7197C108.734 11.55 108.904 11.3238 109.073 11.2672C109.356 11.1541 110.261 11.0975 110.94 11.4369C110.714 11.3803 110.487 11.4369 110.261 11.3803C109.978 11.4369 109.865 11.4369 109.865 11.4369ZM109.752 11.4369C109.695 11.4369 109.526 11.4369 109.469 11.4934C109.469 11.55 109.582 11.6066 109.639 11.6066C109.695 11.6066 109.695 11.6066 109.752 11.55C109.752 11.4934 109.752 11.4369 109.752 11.4369ZM112.863 5.9503C110.996 5.83717 107.433 6.06342 105.679 6.51592C105.679 6.51592 105.51 6.06342 105.34 5.89373C104.888 5.38467 104.661 5.9503 104.661 6.00686C105.227 6.06342 105.34 6.34623 105.34 6.34623C105.227 6.62905 105.114 6.68561 104.774 6.91186C104.661 6.96842 104.265 7.19467 103.756 7.25124C102.625 7.3078 102.964 6.11998 103.643 5.66748C103.53 5.78061 103.134 6.4028 103.417 6.68561C103.7 7.02499 104.718 6.74217 104.944 6.45936C104.831 6.34623 104.548 6.28967 104.209 6.34623C104.209 6.17655 104.322 5.66748 104.831 5.21498C105.001 5.27154 105.566 5.55436 105.736 6.00686C107.376 5.55436 110.318 5.44123 110.487 5.44123C110.431 5.15842 110.374 4.08373 110.374 4.02716C110.374 3.85748 110.487 3.80091 110.6 3.68779C110.714 3.91404 110.827 4.02716 111.11 4.08373C110.996 4.19685 110.883 4.25341 110.77 4.36654C110.77 4.59279 110.827 4.98873 110.827 5.10186C111.11 4.98873 111.449 4.81904 111.901 4.70592C112.015 4.76248 112.241 4.76248 112.354 4.76248C112.524 4.76248 112.693 4.8756 112.806 4.93217C112.863 4.98873 112.976 5.10185 112.976 5.27154C112.976 5.55436 112.92 5.78061 112.863 5.9503ZM112.467 5.27154C112.241 4.8756 111.392 5.21498 110.827 5.44123C111.166 5.44123 111.392 5.44123 111.732 5.44123C111.845 5.44123 112.241 5.44123 112.467 5.44123C112.524 5.38467 112.524 5.32811 112.467 5.27154ZM104.774 7.25124C104.661 7.19467 104.548 7.19467 104.435 7.13811C104.322 7.25124 104.265 7.42093 104.209 7.53405C104.379 7.59061 104.492 7.64718 104.661 7.70374C104.718 7.59061 104.774 7.53405 104.831 7.42093C104.944 7.47749 105.057 7.47749 105.17 7.53405C105.284 7.36436 105.284 7.3078 105.397 7.13811C105.227 7.08155 105.114 7.02499 104.944 6.96842C104.888 7.08155 104.831 7.13811 104.774 7.25124ZM118.406 5.89373C118.745 5.83717 119.085 5.9503 119.255 5.78061C119.028 5.72404 118.802 5.66748 118.745 5.55436C118.859 5.49779 118.972 5.61092 119.028 5.66748C119.085 5.61092 119.085 5.61092 119.141 5.55436C118.915 5.38467 118.519 5.49779 118.463 5.66748C118.519 5.72404 118.632 5.72404 118.689 5.78061C118.576 5.78061 118.463 5.83717 118.406 5.89373ZM118.18 6.57248C118.01 6.91186 117.897 7.25124 117.727 7.59061C117.84 7.64718 117.954 7.53405 118.067 7.47749C118.519 7.19467 118.859 6.45936 119.028 6.00686C119.028 6.00686 118.745 6.06342 118.632 6.11998C118.35 6.17655 118.293 6.28967 118.18 6.57248ZM114.786 6.74217C114.899 6.8553 114.956 6.96842 115.125 7.08155C115.295 6.96842 115.352 6.96842 115.578 6.8553C115.465 6.74217 115.352 6.62905 115.239 6.51592C115.069 6.57248 114.899 6.62905 114.786 6.74217ZM117.84 6.34623C117.784 6.57248 117.558 6.74217 117.445 6.91186C116.822 6.68561 115.408 6.28967 114.673 6.23311C114.447 6.45936 114.164 6.74217 113.825 6.8553C113.372 6.79874 113.033 6.68561 112.693 6.51592C112.863 6.51592 112.92 6.51592 113.089 6.51592C113.542 6.51592 113.994 6.34623 114.277 6.17655C113.598 6.06342 113.429 5.89373 113.768 5.44123C113.938 5.27154 114.164 4.8756 114.503 4.98873C114.786 5.04529 114.843 5.44123 114.843 5.72404C115.635 5.83717 116.596 6.06342 117.388 6.34623C117.445 6.11998 117.275 6.00686 117.218 5.83717C117.331 5.72404 117.501 5.55436 117.614 5.49779C117.784 5.66748 117.897 6.11998 117.84 6.34623ZM114.164 5.38467C114.164 5.38467 114.051 5.44123 113.994 5.61092C114.051 5.72404 114.164 5.72404 114.334 5.78061C114.334 5.78061 114.39 5.78061 114.447 5.78061C114.503 5.55436 114.334 5.32811 114.164 5.38467ZM105.849 6.96842C106.019 7.02499 106.132 7.08155 106.302 7.13811C106.415 7.02499 106.471 6.91186 106.584 6.79874C106.415 6.74217 106.302 6.68561 106.132 6.62905C106.019 6.68561 105.906 6.8553 105.849 6.96842ZM124.854 35.9851C123.836 37.9648 122.592 39.2092 120.838 40.3404C118.293 41.9242 115.691 41.5848 114.786 41.0757C114.786 41.0757 114.843 41.2454 114.899 41.302C114.899 41.3585 114.956 41.4717 114.956 41.5282C115.295 42.4332 115.069 43.3948 113.825 43.5079C113.485 43.5645 113.146 43.5645 112.693 43.7342C112.41 43.8473 112.071 44.1301 111.675 44.4695C111.505 44.6392 111.223 45.0351 111.053 45.3745C110.883 45.0351 110.6 44.6392 110.431 44.4695C110.091 44.0735 109.752 43.8473 109.413 43.7342C108.96 43.5079 108.621 43.5079 108.281 43.5079C107.037 43.3382 106.811 42.4332 107.15 41.5282C107.15 41.4717 107.207 41.3585 107.207 41.302L107.32 41.0757C106.698 41.4151 105.114 41.6979 103.304 41.2454C103.247 41.2454 103.191 41.1889 103.134 41.1889C101.664 40.7929 100.363 40.0576 99.2879 39.0395C97.987 37.7951 97.2516 36.4941 96.9688 35.9851C94.5366 31.0076 94.876 23.6544 94.876 22.8625C94.8195 14.3216 96.686 9.57031 98.3263 7.25124C97.8173 6.62905 97.5345 6.23311 97.5345 6.17655C97.3648 6.00686 97.082 5.78061 96.5163 5.66748C96.3466 4.53623 95.9507 3.23529 95.9507 3.23529C95.9507 3.23529 97.082 4.02716 98.1001 4.47967C98.0435 5.04529 98.1566 5.38467 98.3263 5.61092C98.3263 5.66748 98.5526 5.9503 98.9485 6.45936C99.6838 5.55436 100.419 4.93217 101.607 4.19685C101.89 4.02716 102.229 3.85748 102.512 3.74435C102.512 3.29185 102.625 2.83935 102.964 2.55653C102.964 2.27372 103.191 1.99091 103.474 1.87778C103.756 1.82122 104.152 1.93434 104.379 2.10403C104.831 2.1606 105.284 2.38685 105.566 2.78278C106.528 2.55653 107.659 2.44341 108.96 2.33028C109.13 1.70809 109.526 1.25559 110.035 1.02934C110.148 0.746528 110.544 0.463715 110.883 0.463715C111.223 0.463715 111.562 0.746528 111.732 1.02934C112.241 1.25559 112.637 1.70809 112.806 2.33028C114.107 2.38685 115.239 2.55653 116.2 2.78278C116.54 2.44341 116.935 2.21716 117.388 2.10403C117.614 1.93434 118.01 1.76466 118.293 1.87778C118.576 1.99091 118.802 2.33028 118.802 2.55653C119.085 2.83935 119.255 3.29185 119.255 3.74435C119.594 3.91404 119.877 4.02716 120.16 4.19685C121.347 4.8756 122.196 5.66748 122.875 6.45936C123.327 5.89373 123.553 5.55436 123.61 5.49779C123.78 5.27154 123.893 4.93217 123.836 4.36654C124.854 3.91404 125.985 3.12216 125.985 3.12216C125.985 3.12216 125.59 4.4231 125.42 5.55436C124.854 5.61092 124.571 5.89373 124.402 6.06342C124.402 6.06342 124.062 6.51592 123.497 7.25124C125.08 9.57031 126.947 14.3216 126.89 22.806C126.947 23.4847 127.286 31.0076 124.854 35.9851ZM124.119 9.23093C123.101 9.45718 122.479 9.45718 122.083 9.40062C121.8 9.96625 121.63 10.4753 121.63 11.4369C121.234 11.3238 121.008 11.2106 120.782 10.9844C120.499 11.3803 120.329 11.6066 120.046 12.0025C122.705 16.7538 122.705 21.1657 122.761 22.41C124.854 21.2222 126.155 20.091 126.438 19.8647C126.155 15.4528 125.42 12.1156 124.119 9.23093ZM119.877 22.5232C119.82 23.0322 119.82 23.4847 119.933 23.9372C120.16 23.5979 120.329 23.315 120.499 22.7494C120.499 23.2019 120.612 23.711 120.725 23.8807C121.065 23.4282 121.234 21.5616 121.234 21.5616C121.234 21.5616 121.234 21.6182 121.404 21.6747C121.574 20.996 121.46 19.6385 121.347 19.0163C121.121 17.885 120.669 16.5275 119.255 14.8872C118.519 14.0388 117.954 14.4347 117.331 15.0569C116.37 16.1316 116.144 16.5841 115.012 16.8103C114.899 16.8103 114.956 16.8669 115.239 16.8669C116.653 16.8669 117.105 15.9053 117.501 15.4528C117.784 15.17 118.123 14.8872 118.463 15.0569C118.576 15.1135 118.972 15.566 118.576 16.6406C118.576 16.4144 118.463 16.1881 118.406 16.1316C118.236 16.8669 117.954 17.4325 117.671 17.9416C117.614 17.8285 117.614 17.7153 117.558 17.5456C117.445 18.4506 116.596 19.3556 116.483 20.6C116.426 20.4869 116.313 20.3738 116.313 20.0344C115.691 21.1657 115.069 23.1454 115.465 24.1069C115.465 23.0888 116.087 21.6182 116.37 21.1657C115.974 22.4666 115.465 24.0504 115.917 25.0685C115.974 24.22 116.426 22.8625 116.766 22.2969C116.2 24.4463 115.974 25.521 116.596 26.3694C116.483 25.5775 116.822 24.3332 117.275 23.3716C116.992 25.0685 116.54 26.4825 117.331 27.2179C117.218 26.1432 117.614 24.6725 117.84 24.1635C117.558 25.7472 117.388 27.331 117.897 28.1229C117.897 27.5572 118.01 26.9916 118.123 26.426C118.236 25.7472 118.463 25.0685 118.463 25.0685C118.463 25.0685 118.293 26.1997 118.236 27.5572C118.236 27.7835 118.236 28.0097 118.236 28.236C118.236 28.5188 118.236 28.8016 118.293 29.0844C118.35 29.3107 118.406 29.5935 118.519 29.7632C118.689 27.9532 118.859 26.3694 119.141 25.6341C119.141 25.6341 118.915 27.331 118.802 29.9329C118.802 30.046 118.802 30.1026 118.802 30.2157C118.632 33.9488 119.141 35.1366 119.311 35.5326C119.311 35.5326 119.255 35.476 119.255 34.967C119.255 34.571 119.255 34.571 119.311 34.1185C119.311 34.0054 118.972 33.2701 119.028 32.3651C119.085 31.7994 119.085 31.2338 119.141 30.7248C119.198 30.2157 119.255 29.7632 119.255 29.3107C119.311 28.9147 119.368 28.4622 119.424 28.0663C119.481 27.4441 119.65 26.8785 119.707 26.2563C119.82 25.8038 119.764 26.1997 119.764 26.3129C119.707 26.8785 119.594 28.0097 119.537 29.2541C119.481 30.1591 119.255 31.9691 119.311 32.8176C119.368 33.5529 119.537 33.8923 119.537 34.0054C119.481 35.476 119.65 36.0416 119.877 36.6073C119.877 36.6073 120.046 36.0982 120.16 35.4195C120.16 35.476 120.103 35.5326 119.99 35.5326C119.82 35.0801 119.707 34.2316 119.82 33.3832C119.82 33.2135 119.594 33.0438 119.65 32.3651C119.65 31.2904 119.82 30.2157 119.933 29.141C119.99 28.8016 120.046 28.4622 120.103 28.1229C120.16 27.8966 120.16 27.7269 120.216 27.5007C120.273 27.1613 120.329 26.8219 120.386 26.4825C120.386 26.426 120.386 26.3694 120.442 26.3129C120.442 26.3129 120.442 26.5391 120.386 26.8785C120.273 28.2926 119.933 32.0257 119.933 32.3085C119.933 33.0438 120.103 33.2701 120.103 33.3832C120.046 33.8923 120.046 34.8538 120.16 35.0801C120.216 34.8538 120.273 34.4579 120.273 34.4579C120.273 34.4579 120.499 32.9873 120.725 30.8379C120.782 30.4985 120.782 30.1591 120.838 29.8763C120.895 29.5935 120.895 29.2541 120.951 28.9147C121.008 28.5188 121.008 28.1794 121.065 27.7835C121.065 27.6138 121.121 27.4441 121.121 27.2744C121.234 26.2563 121.291 25.125 121.404 24.1635C121.404 24.1635 121.517 22.5232 121.574 22.0707C121.517 22.0141 121.517 22.0141 121.517 22.0141C121.517 22.0141 121.347 23.9938 120.782 24.7291C120.612 24.616 120.442 23.8241 120.499 23.5979C120.386 23.9938 119.877 24.5029 119.877 24.5029C119.877 24.5029 119.707 24.1069 119.707 23.4282C119.537 23.6544 119.424 23.8241 119.141 23.9938C119.028 23.7675 118.915 23.4847 118.915 22.8625C118.802 22.9757 118.689 23.1454 118.463 23.2585C118.406 23.0888 118.067 22.5232 118.689 20.4303C118.406 22.3535 118.576 22.5797 118.632 22.7494C118.745 22.6928 118.859 22.6363 118.915 22.5797C118.915 22.2403 119.028 21.7878 119.141 21.2222C119.028 22.7494 119.141 23.2585 119.311 23.5413C119.368 23.4847 119.594 23.2019 119.877 22.5232ZM115.125 23.1454C115.295 21.1657 115.635 19.9778 115.917 18.9597C114.843 20.091 115.012 22.7494 115.125 23.1454ZM115.352 18.8466C115.691 17.8285 115.408 17.3194 115.239 17.2628C115.182 17.7153 115.295 17.885 115.352 18.8466ZM116.2 19.695C116.483 18.79 116.596 18.2244 116.596 17.4891C116.37 17.7153 116.144 18.6769 116.2 19.695ZM117.105 17.7153C117.162 17.376 117.218 16.98 117.162 16.5841C116.992 16.9235 116.822 17.6588 116.879 18.3375C116.935 18.1678 117.049 17.9416 117.105 17.7153ZM114.673 25.1816C114.673 25.125 114.673 25.125 114.673 25.125C114.73 25.125 114.73 25.125 114.786 25.1816C114.843 25.1816 114.843 25.2382 114.899 25.2382C114.843 25.0685 114.786 24.7857 114.786 24.5029C114.786 24.22 114.73 23.8807 114.673 23.5979V23.5413C114.616 23.711 114.503 23.8241 114.39 23.9372C114.22 24.1635 114.107 24.3332 114.051 24.616V24.6725L113.994 24.616C114.051 24.6725 113.768 24.3332 113.768 24.3332C113.655 24.7857 112.92 25.6907 112.75 25.9169C112.75 25.9735 112.467 26.3694 112.354 27.4441C112.241 28.4622 112.354 29.0279 112.354 29.0279L112.637 28.7451C112.637 28.7451 112.637 29.0279 112.637 29.3672C112.637 29.5935 112.524 29.8197 112.524 29.8197C112.524 29.8197 113.033 29.9329 113.429 29.4238L113.485 29.5935C113.542 29.7632 113.598 29.9894 113.429 30.1026C113.429 30.1026 113.146 30.3288 113.202 30.5551C113.202 30.6116 113.259 30.7248 113.372 30.7813C113.372 30.8944 113.485 30.951 113.542 31.0076C113.542 30.8944 113.542 30.8379 113.542 30.7813C113.598 30.6116 113.711 30.6116 113.768 30.6116C113.825 30.6116 113.881 30.6116 113.881 30.6116C113.881 30.6116 113.938 31.2338 113.994 31.4601C114.051 31.6863 114.107 31.9691 114.107 32.2519C114.107 32.3085 114.107 32.3651 114.107 32.4782C114.107 32.7044 114.277 32.7044 114.334 32.7044C114.39 32.7044 114.503 32.7044 114.616 32.7044C114.447 32.761 114.447 32.8176 114.447 32.8176C114.447 32.9307 114.503 33.0438 114.447 33.2135C114.673 33.1004 114.673 32.8741 114.673 32.6479C114.843 32.5348 114.786 32.1954 114.56 31.6298C114.447 31.3469 114.39 30.951 114.447 30.8944C114.503 30.8944 114.56 30.8944 114.673 31.0641C114.73 31.1773 114.843 31.2904 114.956 31.4035C115.069 31.5166 115.125 31.6298 115.125 31.7429C115.125 31.7994 115.125 31.7994 115.069 31.7994H115.012C114.956 31.7994 114.899 31.7994 114.843 31.7994C114.899 31.856 115.125 32.1388 115.182 32.0257C115.352 31.856 115.182 32.1388 115.465 32.1954C115.635 32.1954 115.804 32.0823 115.804 31.856C115.804 31.7994 115.804 31.7429 115.804 31.6298C115.748 31.4035 115.578 31.1773 115.521 31.1207L115.635 31.3469C115.125 30.8379 115.182 30.7248 115.239 30.6682C115.295 30.6116 115.352 30.5551 115.465 30.5551C115.635 30.5551 115.861 30.5551 115.861 30.5551C116.03 30.6116 116.37 30.6682 116.37 30.7248C116.37 30.7248 116.37 30.7813 116.313 30.7813C116.257 30.8379 116.144 30.8379 116.144 30.8379C116.144 30.8944 116.257 30.8944 116.313 30.951C116.37 31.0076 116.709 31.0641 116.822 30.951L116.879 30.8944C116.935 30.8944 117.105 30.8944 117.105 30.7813C117.162 30.6682 116.992 30.5551 116.879 30.4419C116.766 30.3854 116.426 30.2722 116.144 30.1591C116.03 30.1026 115.917 30.1026 115.804 30.046L115.239 29.8763C115.239 29.8763 114.899 29.7632 114.786 29.7066C114.73 29.7066 114.673 29.6501 114.673 29.6501C114.56 29.5935 114.503 29.5369 114.447 29.4238C114.39 29.3107 114.334 29.0844 114.277 28.8582C114.334 28.9147 114.503 29.0279 114.73 29.0279C114.73 28.9147 114.673 28.6319 114.73 28.5188C114.843 27.5572 114.843 26.9916 114.843 26.9916C114.843 26.9916 115.012 27.1613 115.012 27.2179C115.069 27.0482 115.012 26.6522 114.956 26.2563C114.843 26.03 114.786 25.5775 114.673 25.1816ZM115.408 29.7632L115.861 29.8763C115.917 29.8763 115.974 29.9329 116.087 29.9329C116.144 29.7066 116.2 29.4804 116.2 29.2541C116.2 29.0279 116.766 29.5369 117.162 29.9329C117.331 30.1026 117.331 30.046 117.275 29.8763C116.879 29.3672 116.144 28.8582 115.917 28.7451C115.578 28.5188 115.352 28.5754 115.521 28.8016C115.578 29.0279 115.521 29.3672 115.408 29.7632ZM116.03 33.4963C116.483 34.0054 117.162 35.0235 117.388 35.3063C117.954 35.872 118.18 35.9851 118.632 35.9851C118.519 35.5891 118.35 35.1932 117.671 34.1751C117.331 33.6094 116.766 32.761 116.144 32.0823C116.144 32.1954 116.144 32.3085 116.087 32.3651C116.087 32.3651 116.087 32.4216 116.03 32.4216C115.974 32.4782 115.917 32.5348 115.861 32.5913C115.748 32.6479 115.635 32.7044 115.521 32.7044C115.408 32.7044 115.295 32.6479 115.239 32.5913C115.182 32.5913 115.125 32.5913 115.012 32.5348C115.012 32.761 115.012 32.8741 114.899 32.9873C114.899 33.1004 114.899 33.3832 114.673 33.5529C114.673 33.6094 114.73 33.6094 114.73 33.6094C114.843 33.8357 114.786 34.0054 114.73 34.0619C114.673 34.1185 113.994 34.9104 113.825 35.0235C113.655 35.1932 113.429 35.0235 113.429 35.0235L113.315 34.9104C113.315 34.9104 113.146 35.0801 112.976 35.2498C112.976 35.2498 112.976 35.2498 113.033 35.3063C113.259 35.5326 113.542 35.6457 113.768 35.7588C113.994 35.872 114.73 36.1548 115.239 36.3245C115.125 35.9851 115.012 35.5326 114.843 35.1366C114.956 35.3063 115.295 35.9285 115.635 36.4941C115.635 36.4941 115.691 36.4941 115.635 36.4941C116.03 36.6638 116.54 36.9466 116.935 37.1729C116.879 37.0598 116.879 36.9466 116.879 36.9466C116.879 36.9466 116.54 36.5507 116.257 36.2113C115.748 35.476 115.465 34.7407 115.295 34.2882C115.861 35.1366 115.974 35.3629 116.2 35.6457C116.879 36.6073 117.671 37.0032 117.954 37.0032C117.84 36.4941 117.671 36.381 117.671 36.381C117.671 36.381 117.331 36.0982 116.935 35.5891C117.049 35.7023 117.105 35.8154 116.935 35.5891C116.766 35.4195 116.822 35.476 116.935 35.5891C116.822 35.0235 116.426 34.4013 116.03 33.4963ZM114.107 38.191C115.069 38.3041 117.105 38.3042 117.84 38.0213C117.558 37.7951 116.37 37.0598 114.616 36.3245C114.22 36.1548 113.768 35.9851 113.429 35.7588C113.202 35.5891 113.089 35.5326 112.92 35.3063C112.354 34.7407 110.77 33.1569 110.487 32.8741L109.469 33.8357C109.469 33.8357 112.184 36.4941 112.863 36.8901C113.768 37.3426 116.257 37.9082 116.257 37.9082C116.257 37.9082 114.334 37.7385 112.863 37.1729C111.958 36.8335 109.186 34.0619 109.186 34.0619L108.508 34.6841C108.847 35.0801 109.582 35.9285 110.827 36.8901C111.732 37.5688 112.75 38.0213 114.107 38.191ZM111.166 37.5688C111.166 38.0779 111.619 38.6435 111.675 38.7001C111.675 38.7001 111.845 38.5304 111.901 37.9648C111.562 37.8516 111.336 37.682 111.166 37.5688ZM106.528 34.1751C106.358 34.6841 106.075 35.4195 105.566 36.0982C105.34 36.4376 104.944 36.8335 104.944 36.8335C104.944 36.8335 104.944 36.8901 104.888 37.0032L104.831 37.0598L105.227 36.8335C105.284 36.777 105.34 36.777 105.453 36.7204C105.736 36.5507 106.019 36.4376 106.302 36.3245C106.584 35.8154 106.924 35.1932 107.037 35.0235C106.98 35.1366 106.924 35.476 106.641 36.2113L106.867 36.0982C107.32 35.9285 107.716 35.7588 107.942 35.7023C108.281 35.5326 108.394 35.4195 108.564 35.3629C108.564 35.3629 108.621 35.3063 108.677 35.2498L108.338 34.9104L108.225 35.0235C108.225 35.0235 108.055 35.1932 107.829 35.0235C107.659 34.9104 106.98 34.1185 106.924 34.0619C106.867 34.0054 106.754 33.8357 106.924 33.6094C106.698 33.4398 106.698 33.1569 106.698 33.0438C106.584 32.9307 106.584 32.761 106.584 32.5913C106.528 32.6479 106.471 32.6479 106.358 32.6479C106.302 32.7044 106.189 32.761 106.075 32.761H106.019C105.906 32.761 105.793 32.7044 105.736 32.6479C105.623 32.5913 105.623 32.5913 105.566 32.4216C105.566 32.4216 105.566 32.4216 105.566 32.3651C105.17 32.761 104.831 33.3266 104.265 34.1185C103.587 35.1366 103.474 35.5326 103.304 35.9285C103.756 35.9285 103.983 35.8154 104.548 35.2498C104.831 34.967 105.51 33.9488 105.906 33.4398C105.566 34.3448 105.17 35.0235 104.831 35.476C104.435 35.9851 104.039 36.3245 104.039 36.3245C104.039 36.3245 103.869 36.4376 103.756 36.9466C104.039 36.9466 104.774 36.5507 105.51 35.5891C105.793 35.2498 105.962 35.0235 106.528 34.1751ZM106.132 31.3469C105.906 31.5732 105.736 31.7994 105.736 32.1388C105.736 32.3651 105.906 32.4782 106.075 32.4782C106.358 32.4216 106.189 32.1388 106.358 32.3085C106.415 32.3651 106.641 32.1388 106.698 32.0823C106.584 32.0823 106.415 32.1388 106.415 31.9126C106.415 31.7994 106.528 31.6863 106.641 31.5732C106.698 31.4601 106.98 31.0076 107.094 31.0641C107.15 31.1207 107.15 31.5166 106.98 31.7994C106.698 32.3651 106.698 32.7044 106.867 32.8176C106.867 32.9873 106.867 33.2135 107.094 33.3832C107.037 33.2135 107.094 33.1004 107.094 32.9873C107.094 32.9873 107.094 32.9307 106.924 32.8741C106.98 32.8741 107.15 32.8741 107.207 32.8741C107.32 32.8741 107.433 32.8176 107.433 32.6479C107.433 32.5913 107.433 32.5348 107.433 32.4216C107.489 32.0823 107.546 31.7994 107.546 31.6298C107.603 31.4035 107.659 30.7813 107.659 30.7813C107.659 30.7813 107.716 30.7813 107.772 30.7813C107.829 30.7813 107.942 30.8379 107.999 30.951C107.999 31.0076 107.999 31.0641 107.999 31.1773C108.055 31.1207 108.168 31.0641 108.168 30.951C108.281 30.8944 108.281 30.8379 108.338 30.7248C108.395 30.4985 108.112 30.2722 108.112 30.2722C107.942 30.1591 107.999 29.9329 108.055 29.7632L108.168 29.5369C108.225 29.6501 108.338 29.7066 108.451 29.7632C108.79 29.9894 109.13 29.9329 109.13 29.9329C109.13 29.9329 109.073 29.7632 109.017 29.4804C108.96 29.141 109.017 28.8582 109.017 28.8582L109.3 29.141C109.3 29.141 109.469 28.6319 109.356 27.6138C109.243 26.4825 109.017 26.03 108.96 25.8604C108.904 25.5775 108.734 25.3513 108.734 25.3513C108.734 25.3513 108.734 25.4644 108.508 25.6341C108.281 25.3513 107.885 24.7857 107.772 24.4463C107.716 24.5594 107.603 24.6725 107.546 24.7291L107.49 24.7857V24.7291C107.433 24.4463 107.263 24.22 107.15 24.0504C107.037 23.9372 106.924 23.7675 106.867 23.6544C106.754 23.9372 106.754 24.2766 106.754 24.5594C106.754 24.8422 106.698 25.125 106.641 25.2947C106.698 25.2382 106.754 25.2382 106.754 25.2382C106.811 25.1816 106.867 25.1816 106.867 25.1816V25.2382C106.754 25.6341 106.698 26.0866 106.698 26.3694C106.641 26.7654 106.698 27.1047 106.754 27.2744C106.754 27.2179 107.037 27.1047 107.037 27.1047C107.037 27.1047 106.867 27.6704 106.924 28.6319C106.924 28.8016 106.924 29.0844 106.924 29.141C107.094 29.141 107.263 29.0279 107.32 28.9713C107.263 29.1976 107.207 29.4804 107.15 29.5369C106.924 29.8763 106.415 29.9329 106.019 30.046C105.566 30.1591 105.114 30.2722 104.661 30.4985C104.548 30.5551 104.379 30.7248 104.435 30.8379C104.492 30.951 104.605 30.951 104.661 30.951L104.718 31.0076C104.831 31.1773 105.17 31.0641 105.227 31.0076C105.34 30.951 105.397 30.8944 105.397 30.8944C105.397 30.8944 105.284 30.8944 105.227 30.8379L105.17 30.7813C105.17 30.6116 105.962 30.5551 106.075 30.5551C106.189 30.5551 106.245 30.5551 106.302 30.6682C106.584 30.7248 106.584 30.8379 106.132 31.3469ZM106.358 28.8016C106.471 28.5754 106.302 28.5754 105.962 28.7451C105.736 28.8582 105.001 29.3672 104.605 29.8763C104.492 29.9894 104.548 30.046 104.718 29.9329C105.114 29.5369 105.679 29.0279 105.679 29.2541C105.679 29.4804 105.736 29.7066 105.793 29.9329C105.849 29.9329 105.906 29.9329 105.962 29.8763L106.471 29.7632C106.245 29.3672 106.245 29.0279 106.358 28.8016ZM105.566 21.2222C105.906 21.6747 106.528 23.1453 106.471 24.1635C106.867 23.1453 106.245 21.1657 105.623 20.091C105.623 20.4303 105.566 20.4869 105.453 20.6566C105.34 19.4122 104.548 18.4506 104.379 17.6022C104.379 17.7719 104.322 17.885 104.265 17.9981C103.983 17.4891 103.756 16.9235 103.53 16.1881C103.474 16.2447 103.36 16.471 103.36 16.6972C102.964 15.6225 103.36 15.17 103.474 15.1135C103.756 14.9438 104.152 15.2266 104.435 15.5094C104.831 15.9619 105.284 16.9235 106.698 16.9235C106.924 16.9235 107.037 16.8669 106.924 16.8669C105.736 16.6406 105.566 16.1881 104.605 15.1135C103.983 14.4347 103.417 14.0953 102.682 14.9438C101.268 16.5841 100.872 17.9416 100.589 19.0728C100.476 19.695 100.363 21.1091 100.532 21.7313C100.702 21.6747 100.702 21.6182 100.702 21.6182C100.702 21.6182 100.872 23.4847 101.211 23.9372C101.324 23.7675 101.437 23.2585 101.437 22.806C101.607 23.3716 101.777 23.6544 102.003 23.9938C102.116 23.5413 102.116 23.0888 102.059 22.5797C102.342 23.2585 102.569 23.5413 102.682 23.6544C102.795 23.3716 102.908 22.8625 102.851 21.3353C102.964 21.901 103.021 22.3535 103.078 22.6929C103.134 22.7494 103.247 22.8625 103.36 22.8625C103.417 22.6929 103.587 22.4666 103.304 20.5435C103.926 22.6363 103.587 23.2019 103.53 23.3716C103.304 23.2585 103.191 23.0888 103.078 22.9757C103.078 23.5979 102.964 23.8807 102.851 24.1069C102.625 23.9938 102.455 23.7675 102.286 23.5413C102.286 24.22 102.116 24.616 102.116 24.616C102.116 24.616 101.607 24.1069 101.494 23.711C101.494 23.9372 101.324 24.7291 101.211 24.8422C100.702 24.1635 100.476 22.1272 100.476 22.1272C100.476 22.1272 100.419 22.1272 100.419 22.1838C100.476 22.6928 100.532 23.4282 100.589 24.2766C100.645 25.2947 100.759 26.426 100.872 27.3876C101.098 29.7632 101.324 32.1954 101.664 34.571C101.664 34.571 101.72 34.967 101.777 35.1932C101.833 34.967 101.89 34.0054 101.833 33.4963C101.833 33.3832 102.003 33.1569 102.003 32.4216C102.003 32.1388 101.664 28.4622 101.55 26.9916C101.55 26.8219 101.494 26.426 101.494 26.426C101.494 26.4825 101.494 26.5391 101.55 26.5957C101.664 27.1613 101.777 27.6704 101.833 28.236C101.89 28.5754 101.946 28.9147 102.003 29.2541C102.173 30.3288 102.286 31.4035 102.286 32.4782C102.286 33.1569 102.059 33.3832 102.116 33.4963C102.229 34.3448 102.116 35.1932 101.946 35.6457C101.89 35.6457 101.833 35.5326 101.777 35.5326C101.89 36.2113 102.059 36.7204 102.059 36.7204C102.286 36.1548 102.455 35.5891 102.399 34.1185C102.399 34.0054 102.625 33.666 102.625 32.9307C102.625 32.7044 102.569 32.0257 102.512 31.1207C102.399 29.5369 102.286 28.0097 102.116 26.426C102.116 26.3694 102.116 26.1432 102.116 26.1432C102.116 26.1997 102.173 26.2563 102.173 26.3694C102.625 28.3491 102.795 30.4419 102.908 32.4782C102.964 33.3832 102.625 34.1185 102.625 34.2316C102.682 34.6841 102.682 34.6841 102.682 35.0801C102.682 35.5891 102.625 35.6457 102.625 35.6457C102.795 35.3063 103.304 34.062 103.134 30.3288C103.134 30.2157 103.134 30.1591 103.134 30.046C103.021 27.4441 102.795 25.7472 102.795 25.7472C103.021 26.4825 103.247 28.0663 103.417 29.8763C103.417 29.8763 103.474 29.8197 103.474 29.7632C103.756 29.0844 103.756 28.3491 103.756 27.6138C103.643 26.2563 103.53 25.125 103.53 25.125L103.587 25.2382C103.643 25.4079 103.756 25.8038 103.869 26.4825C103.983 26.9916 104.039 27.4441 104.096 27.9532C104.096 28.0097 104.096 28.0663 104.096 28.1794C104.605 27.3876 104.379 25.8604 104.152 24.22C104.379 24.7291 104.774 26.1997 104.661 27.2744C105.453 26.5391 105.001 25.0685 104.718 23.4282C105.17 24.4463 105.51 25.6341 105.397 26.426C106.019 25.5775 105.793 24.5029 105.227 22.3535C105.566 22.9191 106.019 24.2766 106.075 25.125C106.415 24.1635 105.962 22.5232 105.566 21.2222ZM112.58 25.9735C112.58 25.9735 112.92 25.6341 113.033 24.616C113.089 24.6725 113.202 24.7857 113.259 24.8988C113.485 24.616 113.881 23.2019 113.938 22.7494C114.051 22.806 113.938 22.806 114.107 22.8625C114.22 22.6363 114.447 21.8444 114.56 20.7132C114.616 20.7132 114.73 20.7132 114.73 20.7697C114.786 20.2607 114.899 19.4688 114.899 18.8466C114.899 18.3375 114.899 17.3194 114.673 16.7538C114.447 16.1881 114.39 15.8488 114.051 15.3397C114.051 15.3397 113.938 15.3963 113.881 15.4528C113.768 15.17 113.542 14.4913 113.429 14.265C113.089 13.6428 112.976 13.2469 112.637 13.0206C112.806 13.0206 112.863 13.0772 113.033 13.0772C112.806 12.8509 112.75 12.7378 112.467 12.5681C112.524 12.5116 112.693 12.5116 112.92 12.5681C112.58 12.2853 112.467 11.8328 111.619 11.4934C111.788 11.4934 111.901 11.4934 112.071 11.4934C111.958 11.3238 111.732 11.0409 111.279 10.9278C110.431 10.7581 109.243 10.7581 108.677 11.3803C108.621 11.4369 108.508 11.4369 108.338 11.4934C108.225 11.55 108.225 11.55 108.168 11.55C108.055 11.6066 108.055 11.7197 108.225 12.0025C107.999 11.9459 107.942 11.7197 107.885 11.7763C107.772 11.8328 107.716 11.8894 107.603 12.0591C107.546 12.1722 107.433 12.455 107.49 12.5681C107.546 12.5681 107.716 12.6813 107.772 12.455C107.772 12.3984 108.168 12.3419 108.281 12.3419C108.451 12.3419 108.621 12.3984 108.904 12.3984C108.79 12.455 108.564 12.5116 108.451 12.5116C108.338 12.5681 108.338 12.6813 108.451 12.6813C108.564 12.6813 108.621 12.6247 108.734 12.6247C108.79 12.6813 108.734 12.7944 108.79 12.8509C109.469 12.6813 109.526 13.4166 110.261 13.3034C109.922 13.0206 109.639 12.5681 109.356 12.455C110.091 12.5681 110.487 13.2469 111.279 13.2469C111.223 13.1903 111.223 13.1903 111.166 13.0206C111.449 13.0206 111.619 13.2469 111.732 13.2469C111.619 13.36 111.392 13.4166 111.11 13.4731C111.166 13.5863 111.449 13.5863 111.562 13.5863C111.392 13.7559 111.223 13.8125 110.883 13.7559C110.77 13.8691 110.6 14.0953 110.091 14.4347C110.091 14.3216 110.091 14.3216 110.091 14.2084C109.752 14.3781 109.526 14.7741 109.3 14.8872C109.356 14.7741 109.413 14.5478 109.469 14.4347C108.564 15.2266 107.716 16.0185 107.376 16.5841C107.037 17.2628 106.924 17.885 106.924 19.0163C106.98 19.6385 107.207 21.2788 107.263 21.6182C107.32 21.5616 107.376 21.5616 107.433 21.5616C107.659 22.806 108.281 24.5594 108.621 25.125C108.677 25.0119 108.734 24.9554 108.79 24.8422C108.847 25.1816 109.017 25.521 109.3 25.8038C109.3 25.5775 109.413 25.4644 109.413 25.3513C109.469 25.5775 109.469 26.3129 109.865 26.7654C109.865 26.5391 109.922 26.3694 109.978 26.0866C110.035 26.3129 110.091 26.6522 110.205 26.8785C110.318 27.1613 110.487 27.4441 110.657 27.5007C110.657 26.9351 110.714 26.9351 110.77 26.7088C110.77 26.7654 110.996 26.9916 111.11 27.7269C111.562 27.3876 111.732 26.3129 111.732 26.3129C111.732 26.3129 111.845 26.426 111.958 26.7088C112.354 26.3129 112.467 25.8038 112.58 25.4079C112.58 25.5775 112.58 25.8604 112.58 25.9735ZM112.976 31.7429C113.485 31.7429 113.655 31.7429 113.825 31.6863C113.825 31.6298 113.825 31.5732 113.768 31.5166C113.768 31.4601 113.768 31.4601 113.768 31.4035C113.598 31.4601 113.259 31.5732 112.806 31.4601C112.58 31.4035 112.58 31.4035 112.41 31.3469C112.241 31.2904 112.015 31.5732 111.788 31.7429C111.619 31.9126 111.392 32.1954 111.279 32.2519V32.3085C111.449 32.4782 113.598 34.4579 113.768 34.571C113.825 34.6276 113.825 34.6276 113.881 34.571C113.994 34.4579 114.107 34.3448 114.277 34.1751C114.277 34.1751 112.128 32.1954 112.128 32.1388C112.071 32.0823 112.071 32.0823 112.128 32.0257L112.241 31.9126C112.241 31.9126 112.297 31.9126 112.354 31.9126C112.41 31.9691 113.033 32.5913 113.033 32.5913L113.938 33.3832L114.503 33.8923C114.56 33.7791 114.56 33.8357 114.616 33.7791C114.73 33.666 114.673 33.6094 114.39 33.3266C114.334 33.2701 112.92 31.856 112.92 31.856C112.75 31.7994 112.806 31.7429 112.976 31.7429ZM109.695 32.1954C109.639 32.2519 107.546 34.2316 107.546 34.2316C107.659 34.3448 107.829 34.5145 107.942 34.6276C107.999 34.6841 107.999 34.6841 108.055 34.6276C108.168 34.5145 110.318 32.5348 110.544 32.3651V32.3085C110.431 32.1954 110.205 31.9691 110.035 31.7994C109.865 31.5732 109.582 31.3469 109.413 31.4035C109.243 31.4601 109.243 31.4601 109.017 31.5166C108.564 31.5732 108.225 31.5166 108.055 31.4601H107.999C107.999 31.5166 107.999 31.5732 107.999 31.6298C107.999 31.6863 107.999 31.7429 107.999 31.7994C108.225 31.856 108.338 31.856 108.904 31.856C109.073 31.856 109.186 31.9126 109.017 32.0823C109.017 32.0823 107.603 33.4963 107.546 33.5529C107.263 33.8357 107.207 33.8923 107.32 34.0054C107.32 34.0054 107.32 34.0054 107.433 34.1185L107.999 33.6094L108.904 32.8176C108.904 32.8176 109.582 32.1954 109.582 32.1388C109.639 32.0823 109.639 32.0823 109.695 32.1388L109.809 32.2519C109.695 32.1388 109.695 32.1954 109.695 32.1954ZM109.865 27.2179C109.865 27.2179 109.865 27.1047 109.809 26.9351C109.752 26.8219 109.639 26.7654 109.582 26.6522C109.526 26.5957 109.526 26.5391 109.526 26.5391C109.526 26.5957 109.526 26.8219 109.582 26.8785C109.582 26.9916 109.695 27.0482 109.752 27.1047C109.809 27.1613 109.865 27.2179 109.865 27.2179ZM109.865 31.2904L110.035 31.4601C110.091 31.2338 110.148 30.4985 110.148 30.4419C109.922 30.8944 109.865 31.2338 109.865 31.2904ZM109.017 31.2338C109.073 31.1773 109.3 31.1207 109.413 31.0641H109.469C109.526 30.8379 109.639 30.4985 109.695 30.3288C109.639 30.3288 109.13 31.0641 109.017 31.2338ZM110.6 32.0257C110.6 31.7429 110.6 31.4035 110.544 31.2904C110.431 31.4035 110.374 31.6298 110.374 31.7994C110.374 31.7994 110.6 31.9691 110.6 32.0257ZM110.714 30.1026C110.714 30.1026 110.657 29.7066 110.374 29.5935C110.431 29.8763 110.714 30.1026 110.714 30.1026ZM110.94 29.4804C110.94 29.4804 110.996 29.3672 111.11 29.2541C111.223 29.1976 111.788 28.8016 111.901 28.6319C112.015 28.4622 112.071 28.236 112.071 28.236C112.071 28.236 111.958 28.4057 111.732 28.5754C111.505 28.6885 111.053 28.9713 110.996 29.141C110.94 29.1976 110.94 29.2541 110.94 29.3107C110.94 29.2541 110.94 29.1976 110.883 29.1976C110.714 28.9147 110.318 28.7451 110.035 28.4622C109.865 28.2926 109.865 28.1794 109.865 28.1794C109.865 28.4057 109.922 28.5188 109.978 28.6319C110.035 28.7451 110.261 28.9147 110.544 29.0844C110.883 29.3107 110.94 29.4804 110.94 29.4804ZM110.657 28.4057C110.657 27.9532 110.148 27.8966 110.035 27.3876C109.978 28.0663 110.431 28.0663 110.657 28.4057ZM110.94 30.2722C110.94 30.2722 110.996 30.2722 111.166 30.1591C111.279 30.1026 111.392 29.9894 111.505 29.8763C111.562 29.7632 111.562 29.6501 111.562 29.5369C111.562 29.5369 111.505 29.6501 111.336 29.8197C111.279 29.8763 111.166 29.9894 111.11 30.046C110.94 30.1591 110.94 30.2722 110.94 30.2722ZM111.392 30.5551C111.449 30.8379 111.505 31.5166 111.505 31.7429C111.562 31.6863 111.675 31.5732 111.732 31.5166C111.675 31.4035 111.619 30.8379 111.392 30.5551ZM110.94 32.3085C110.94 32.3085 111.11 32.0823 111.223 32.0257C111.166 31.6863 111.11 31.1773 110.94 31.0076C110.94 31.1773 110.94 31.7994 110.94 32.3085ZM110.94 32.5348C110.94 32.7044 110.94 32.8176 110.94 32.8741L111.11 32.7044C111.11 32.7044 110.996 32.5348 110.94 32.5348ZM111.053 33.1004C111.336 33.4398 111.732 33.8357 112.015 34.1185C112.184 33.9488 112.297 33.8357 112.297 33.8357L111.279 32.8741C111.223 32.8741 111.166 32.9873 111.053 33.1004ZM112.297 34.2882C112.524 34.5145 112.75 34.7407 112.976 34.967C113.089 34.8538 113.202 34.7407 113.259 34.6276L112.58 34.0054C112.58 34.062 112.467 34.1185 112.297 34.2882ZM112.467 31.1207C112.354 30.951 112.071 30.6116 111.845 30.3854C112.015 30.7813 112.071 31.0076 112.128 31.1207C112.128 31.1207 112.128 31.1207 112.184 31.1207C112.241 31.1207 112.297 31.0641 112.297 31.0641C112.354 31.0641 112.41 31.0641 112.467 31.1207C112.41 31.1207 112.467 31.1207 112.467 31.1207ZM112.241 27.2179C112.128 27.4441 112.015 27.5572 111.845 27.7269C111.901 27.5572 111.901 27.3876 111.901 27.3876C111.845 27.5572 111.619 27.7835 111.505 27.8966C111.223 28.1794 111.166 28.5188 111.166 28.5188C111.166 28.5188 111.223 28.4057 111.619 28.1794C111.958 27.9532 112.128 27.6138 112.241 27.2179ZM107.433 23.0888C107.433 23.4847 107.716 23.9938 108.055 24.1635C107.829 23.5979 107.659 23.4282 107.433 23.0888ZM115.182 16.2447C115.352 16.2447 115.465 16.2447 115.578 16.1316C115.691 16.075 115.691 16.0185 115.748 15.9619C116.653 14.6609 118.293 12.6247 119.537 10.9844C116.992 8.49562 113.372 8.32593 112.467 8.38249C112.241 8.38249 112.015 8.55218 112.297 8.94812C112.071 9.06124 111.336 8.94812 111.053 8.72187C110.77 9.00468 109.978 9.06124 109.809 8.94812C110.091 8.60874 109.865 8.38249 109.639 8.38249C108.677 8.32593 104.888 8.6653 102.569 10.9278C103.813 12.6247 106.471 16.075 106.528 16.1881C106.584 16.2447 106.698 16.3578 106.867 16.3578H106.924C107.037 16.3578 107.207 16.2447 107.32 16.1316C107.603 15.8488 107.716 15.6791 107.999 15.3963C108.508 14.8872 109.017 14.4347 109.073 14.3781C109.299 14.1519 109.356 14.0388 109.356 13.8691C109.356 13.6994 109.186 13.5863 109.073 13.4731L109.017 13.5297C108.96 13.4731 108.847 13.1903 108.847 13.1903L108.79 13.3034C108.79 13.3034 108.621 12.8509 108.281 12.8509C107.885 12.9075 107.603 12.7378 107.546 12.7378C107.546 12.7378 107.49 12.8509 107.49 13.0206C107.207 12.7944 107.094 12.1156 107.659 11.7197C107.999 11.4934 108.055 11.4934 108.338 11.3238C108.451 11.2672 108.564 11.1541 108.564 11.1541C108.734 10.9278 109.13 10.8147 109.3 10.7581C109.582 10.7016 110.148 10.5884 110.77 10.645C111.11 10.645 111.449 10.7581 111.675 10.8147C111.845 10.8712 112.354 11.2672 112.693 11.6631C112.863 11.8894 113.202 12.6247 113.372 13.0772C113.768 14.0388 113.711 13.9256 113.994 14.5478C114.277 15.2831 114.503 15.6791 114.786 16.075C114.843 16.1316 114.956 16.1881 115.182 16.2447ZM119.707 10.7016C119.82 10.5884 119.877 10.4753 119.99 10.3622C118.859 9.34406 117.105 8.32593 115.239 7.87343C113.994 7.59061 112.976 7.59061 112.297 7.59061C111.788 7.59061 111.449 7.81686 111.449 8.09968C111.11 8.04311 111.053 7.64718 110.996 7.53405C110.94 7.70374 110.827 8.04311 110.544 8.09968C110.544 7.7603 110.205 7.59061 109.695 7.59061C109.073 7.59061 108.055 7.59061 106.754 7.87343C104.831 8.26937 103.191 9.23093 102.003 10.2491C102.059 10.3622 102.173 10.4753 102.286 10.5884C103.304 9.62687 104.718 8.83499 106.189 8.38249C107.433 8.04311 108.904 7.87343 109.582 7.92999C110.205 7.98655 110.261 8.32593 110.205 8.49562C110.487 8.49562 110.883 8.26937 110.996 8.09968C111.053 8.2128 111.449 8.49562 111.788 8.49562C111.732 8.32593 111.788 7.92999 112.41 7.92999C113.089 7.87343 114.616 8.04311 115.804 8.38249C117.218 8.89155 118.689 9.79656 119.707 10.7016ZM120.386 9.45718C120.499 9.90968 120.669 10.4187 121.008 10.7016C121.065 10.7581 121.121 10.7581 121.178 10.8147C121.178 9.96625 121.46 9.51374 121.687 9.00468C122.026 9.06124 122.422 9.17437 123.27 9.00468C122.479 8.43905 122.648 7.81686 122.026 7.19467C121.97 7.13811 121.913 7.02499 121.8 6.96842C121.574 6.79874 121.404 6.74217 121.291 6.74217C121.121 6.74217 121.065 6.79874 121.008 6.8553C120.951 6.96842 120.103 7.87343 119.537 8.49562C120.103 8.49562 120.273 8.94812 120.386 9.45718ZM120.951 6.45936C120.386 5.89373 119.481 5.27154 118.406 4.81904C115.578 3.57466 112.015 3.57466 110.996 3.57466C109.978 3.57466 106.415 3.57466 103.587 4.81904C102.512 5.27154 101.607 5.89373 101.041 6.45936C101.041 6.45936 102.342 7.87343 102.625 8.26937C102.795 8.49562 102.851 8.6653 102.738 8.94812C104.718 7.64718 106.924 6.96842 110.883 6.96842H111.053C114.956 7.02499 117.275 7.64718 119.198 8.94812C119.085 8.6653 119.141 8.49562 119.311 8.26937C119.707 7.87343 120.951 6.45936 120.951 6.45936ZM100.872 6.91186C100.872 6.8553 100.872 6.8553 100.872 6.91186C100.815 6.79874 100.589 6.62905 100.08 7.02499C99.2313 7.7603 99.5142 8.49562 98.6092 9.06124C98.9485 9.11781 99.1748 9.11781 99.401 9.11781C99.5707 9.11781 99.6838 9.11781 99.797 9.11781C99.9667 9.11781 100.08 9.06124 100.193 9.06124C100.419 9.57031 100.702 10.0228 100.702 10.8712C101.777 10.3056 101.324 8.49562 102.286 8.55218C101.72 7.87343 100.928 6.96842 100.872 6.91186ZM101.55 10.5319C102.342 11.55 102.908 12.3419 103.021 12.5116C103.304 12.9075 104.209 13.9822 104.209 13.8691C104.209 13.7559 103.643 13.0206 103.304 12.5116C102.795 11.8328 102.229 11.0975 101.72 10.3622C101.607 10.3622 101.55 10.4753 101.55 10.5319ZM105.34 17.4891C105.34 18.2244 105.51 18.79 105.736 19.695C105.793 18.7335 105.566 17.7719 105.34 17.4891ZM104.831 16.6406C104.774 16.98 104.774 17.4325 104.888 17.7719C104.944 17.9981 105.057 18.2244 105.114 18.3941C105.114 17.7153 104.944 16.98 104.831 16.6406ZM106.811 23.2019C106.924 22.806 107.094 20.1475 106.019 19.0163C106.302 20.0344 106.641 21.2222 106.811 23.2019ZM103.926 37.9648C104.661 38.2476 106.698 38.3041 107.659 38.1345C108.904 37.9648 109.809 37.6254 110.6 37.0598C110.374 36.8901 110.148 36.6638 109.865 36.381C109.469 36.7204 109.073 37.0032 108.847 37.0598C107.376 37.6254 105.453 37.7951 105.453 37.7951C105.453 37.7951 107.942 37.2295 108.847 36.777C109.017 36.6638 109.299 36.4376 109.639 36.1548C109.299 35.8154 109.017 35.5326 108.734 35.3063C108.564 35.476 108.451 35.5326 108.281 35.6457C107.942 35.872 107.489 36.0416 107.094 36.2113C105.397 37.0032 104.209 37.7385 103.926 37.9648ZM109.922 37.9648C109.978 38.191 110.148 38.5304 110.205 38.6435C110.205 38.6435 110.657 38.2476 110.827 37.3991C110.714 37.4557 110.6 37.5688 110.487 37.682C110.261 37.7951 110.035 37.9082 109.922 37.9648ZM119.085 12.3984C119.198 12.2288 119.707 11.55 120.442 10.5884C120.386 10.5319 120.329 10.4753 120.273 10.4187C119.764 11.0975 119.255 11.7763 118.802 12.3984C118.463 12.9075 117.897 13.6994 117.897 13.7559C117.897 13.8691 118.802 12.7944 119.085 12.3984ZM123.214 7.64718C123.157 7.7603 122.931 7.98655 122.931 7.98655C123.157 8.38249 123.384 8.83499 124.006 9.11781C123.836 8.6653 123.553 8.15624 123.214 7.64718ZM122.648 7.3078C122.648 7.36436 122.761 7.47749 122.761 7.53405C124.232 5.61092 125.59 3.80091 125.59 3.80091C125.59 3.80091 125.024 4.19685 124.232 4.59279C124.289 5.04529 124.062 5.55436 123.949 5.72404C123.836 5.72404 123.327 6.4028 122.648 7.3078ZM99.3445 6.74217C99.401 6.8553 99.5142 6.91186 99.5707 7.02499C100.645 5.61092 102.116 4.64935 103.869 3.9706C103.756 3.74435 103.53 3.29185 104.039 2.78278C104.774 2.89591 105.001 3.34841 105.057 3.57466C106.415 3.17872 108.055 2.95247 109.865 2.89591C109.922 1.65153 110.827 1.36872 110.827 1.36872C110.827 1.36872 110.827 1.14247 111.053 1.02934C111.223 1.0859 111.279 1.36872 111.279 1.36872C111.279 1.36872 112.184 1.65153 112.241 2.89591C114.051 2.95247 115.691 3.17872 117.049 3.57466C117.105 3.34841 117.275 2.89591 118.067 2.78278C118.576 3.29185 118.406 3.74435 118.236 3.9706C119.99 4.64935 121.517 5.66748 122.592 7.08155C122.648 6.96842 122.761 6.8553 122.818 6.79874C121.8 5.55436 120.386 4.53623 118.859 3.91404C119.028 3.40497 118.859 3.00904 118.576 2.72622C118.576 2.49997 118.463 2.33028 118.35 2.27372C118.18 2.27372 118.01 2.33028 117.84 2.49997C117.388 2.55653 116.992 2.78278 116.709 3.23529C115.578 2.95247 114.277 2.78278 112.693 2.66966C112.637 1.93434 112.241 1.48184 111.675 1.19903C111.562 0.916216 111.336 0.803091 111.166 0.746528C110.996 0.803091 110.77 0.916216 110.657 1.19903C110.148 1.48184 109.695 1.93434 109.639 2.66966C107.999 2.78278 106.754 2.95247 105.623 3.23529C105.397 2.78278 104.944 2.55653 104.492 2.49997C104.322 2.33028 104.152 2.27372 103.983 2.27372C103.869 2.33028 103.756 2.49997 103.756 2.72622C103.474 3.00904 103.304 3.46154 103.474 3.91404C101.72 4.47967 100.363 5.49779 99.3445 6.74217ZM99.2313 7.47749C99.2879 7.42093 99.3445 7.3078 99.3445 7.3078C98.6657 6.45936 98.2132 5.83717 98.2132 5.78061C98.1001 5.66748 97.8173 5.10185 97.9304 4.64935C97.1385 4.25341 96.5729 3.85748 96.5729 3.85748C96.5729 3.85748 97.8173 5.55436 99.2313 7.47749ZM97.8738 9.17437C97.987 9.11781 98.4395 8.83499 98.6657 8.49562C98.7788 8.32593 98.892 8.15624 99.0051 7.98655L98.7223 7.64718C98.3829 8.09968 98.1001 8.6653 97.8738 9.17437ZM95.5548 19.8647C95.8376 20.091 97.1385 21.2222 99.2313 22.41C99.2879 21.1657 99.2879 16.6972 102.003 11.8894C101.72 11.4934 101.55 11.3238 101.268 10.9278C101.041 11.1541 100.759 11.3238 100.363 11.4369C100.363 10.4753 100.193 9.96625 99.9101 9.40062C99.5142 9.40062 98.892 9.40062 97.8738 9.23093C96.5163 12.1156 95.8376 15.4528 95.5548 19.8647ZM107.772 40.1142C107.885 39.8879 108.225 39.0395 108.394 38.6435C108.394 38.587 108.338 38.4738 108.338 38.4173C108.112 38.4738 107.885 38.4738 107.603 38.5304C107.433 38.5304 105.057 38.9263 103.36 38.0779C103.587 37.9082 103.983 37.6254 104.492 37.286C104.492 37.2295 104.492 37.2295 104.492 37.1729C104.096 37.3992 103.7 37.4557 103.36 37.4557C103.36 37.1729 103.417 36.8335 103.53 36.4376C103.134 36.5507 102.851 36.4376 102.851 36.4376C102.851 36.4376 103.134 35.5891 103.7 34.571C104.209 33.6094 104.944 32.7044 105.566 31.9126C105.623 31.6298 105.849 31.3469 105.906 31.2904L106.019 31.1773C105.962 31.1207 105.906 31.0641 105.793 31.0076C105.736 31.0641 105.679 31.1207 105.623 31.1207C105.397 31.2338 105.284 31.2338 105.17 31.2338C104.944 31.2338 104.831 31.1773 104.774 31.0641C104.605 31.0076 104.492 30.951 104.435 30.7813V30.7248C104.322 30.7813 104.209 30.7813 104.096 30.6682C103.926 30.5551 104.152 29.8763 104.888 29.1976C105.397 28.6885 105.849 28.4622 106.302 28.236C106.641 28.0663 106.867 28.4057 106.698 28.5754C106.471 28.8016 106.358 29.2541 106.528 29.7066C106.754 29.6501 106.811 29.5935 106.867 29.5935C106.924 29.5369 107.037 29.5369 107.15 29.3672C107.15 29.3672 107.15 29.3107 107.207 29.3107L106.924 29.3672C107.094 28.9713 106.867 28.0663 106.98 27.4441C106.924 27.5007 106.811 27.5572 106.754 27.5572C106.641 26.9916 106.641 26.1432 106.698 25.6907C106.698 25.5775 106.528 25.4079 106.302 25.1816C106.132 25.6341 105.849 26.1432 105.34 26.7654C104.944 27.2179 104.265 27.6704 103.926 29.1976C103.869 29.4238 103.756 29.6501 103.7 29.8763C103.474 30.3854 103.474 30.6116 103.474 30.6116C103.474 31.5732 103.474 33.5529 103.247 34.6841C103.021 35.6457 102.682 36.1548 102.682 36.1548L102.625 36.0982C102.512 36.4376 102.399 37.0032 102.003 37.4557C102.003 37.4557 101.664 36.8335 101.098 31.856C100.419 26.426 100.136 20.7132 100.136 20.7132C100.08 19.695 100.306 18.5072 100.589 17.6588C101.098 16.3013 102.059 14.9438 102.625 14.3781C102.964 14.0388 103.36 13.9822 103.756 14.0388C103.643 13.8691 103.53 13.7559 103.53 13.7559C103.134 13.2469 102.738 12.7378 102.342 12.2288C99.6838 16.9235 99.7404 22.5232 99.7404 22.5797V23.2019L99.2879 22.9757C97.1951 21.7878 96.2901 21.0525 95.6113 20.4869C95.5548 21.0525 95.4982 22.9757 95.4982 22.9757C95.4982 23.0322 95.4982 23.4282 95.4982 24.1635C95.4982 26.426 95.8941 31.9126 97.7042 35.7023C97.9304 36.1548 98.6657 37.4557 99.8535 38.587C100.815 39.492 101.89 40.1142 103.078 40.4535C103.134 40.4535 103.304 40.5101 103.36 40.5667C104.774 40.9626 106.302 40.906 107.772 40.1142ZM107.659 41.6979C107.942 41.4717 108.395 41.302 108.904 41.5282C108.96 40.8495 109.017 39.8879 109.186 39.0395C108.96 39.2657 108.79 39.3788 108.79 39.3788C108.734 39.3788 108.734 39.3223 108.677 39.2657C108.281 40.2273 107.659 41.6979 107.659 41.6979ZM112.976 42.1504C113.033 41.4717 112.75 39.6051 112.58 38.5304C112.58 38.5304 112.524 38.4738 112.524 38.4173C112.467 38.3607 112.467 38.3041 112.41 38.2476C112.354 38.4738 112.297 38.7001 112.184 38.9263C112.071 39.2092 111.901 39.4354 111.845 39.4354C111.788 39.4354 111.336 39.096 110.996 38.3607C110.657 39.0395 110.205 39.3788 110.148 39.3788C110.091 39.3788 109.922 39.096 109.809 38.8698C109.752 38.7567 109.695 38.6435 109.695 38.5304C109.526 39.6617 109.3 41.4151 109.3 42.0938C108.281 41.4151 107.659 42.0939 107.829 42.5464C107.829 42.6029 107.885 42.6029 107.885 42.6595C107.999 42.8292 108.168 42.8857 108.394 42.9423C108.734 42.9423 109.186 42.9989 109.695 43.2251C110.148 43.4514 110.657 43.7907 111.166 44.4129C111.675 43.7907 112.184 43.4514 112.637 43.2251C113.146 42.9989 113.598 42.9423 113.938 42.9423C114.164 42.9423 114.334 42.8292 114.447 42.6595C114.447 42.6029 114.503 42.6029 114.503 42.5464C114.616 42.1504 113.994 41.4717 112.976 42.1504ZM114.56 41.6979C114.56 41.6979 113.938 40.0576 113.542 39.096C113.429 39.2092 113.372 39.3223 113.315 39.3223C113.315 39.3223 113.146 39.2657 112.976 39.096C113.146 39.8879 113.259 40.8495 113.259 41.5282C113.825 41.302 114.277 41.4717 114.56 41.6979ZM126.495 23.0322C126.495 22.2969 126.438 21.0525 126.438 20.4869C125.703 21.0525 125.08 21.6182 122.875 22.9191L122.309 23.2585V22.8625C122.309 22.806 122.479 17.2063 119.764 12.3984C119.594 12.6247 119.028 13.36 118.406 14.0953C118.745 14.0388 119.085 14.1519 119.424 14.4347C119.99 15.0003 120.895 16.3013 121.46 17.7153C121.743 18.5638 121.97 19.7516 121.913 20.7697C121.913 20.7697 121.574 26.4825 120.951 31.9126C120.386 36.8901 120.046 37.5123 120.046 37.5123C119.65 37.0598 119.537 36.4941 119.424 36.1548L119.368 36.2113C119.368 36.2113 119.028 35.7023 118.802 34.7407C118.576 33.6094 118.519 31.6298 118.576 30.6682C118.576 30.6682 118.576 30.3854 118.35 29.9329C118.236 29.7066 118.18 29.4804 118.123 29.2541C117.784 27.7269 117.049 27.2744 116.709 26.8219C116.257 26.2563 115.917 25.6341 115.691 25.1816C115.691 25.1816 115.691 25.1816 115.635 25.2382C115.408 25.4644 115.182 25.7472 115.182 25.8604C115.295 26.7654 115.352 27.3876 115.239 27.8401C115.182 27.7835 115.125 27.7269 115.069 27.6704C115.125 28.236 114.843 28.9147 115.012 29.4804L114.673 29.4238C114.673 29.4804 114.673 29.4804 114.73 29.5369C114.786 29.5935 114.843 29.6501 114.899 29.7066L115.012 29.7632C115.069 29.7632 115.125 29.8197 115.352 29.8763C115.578 29.4238 115.408 29.0279 115.182 28.7451C115.012 28.5188 115.239 28.236 115.578 28.4057C116.03 28.5754 116.483 28.8582 116.992 29.3672C117.727 30.046 117.954 30.7248 117.784 30.8379C117.671 30.951 117.558 30.8944 117.445 30.8944V30.951C117.388 31.0641 117.275 31.1773 117.105 31.2338C117.049 31.3469 116.879 31.4035 116.709 31.4035C116.54 31.4035 116.313 31.2904 116.257 31.2904C116.2 31.2904 116.144 31.2338 116.087 31.1773C116.03 31.2338 115.974 31.2338 115.974 31.2904C116.54 32.0823 117.671 33.3266 118.463 34.7407C119.028 35.7588 119.311 36.6073 119.311 36.6073C119.311 36.6073 119.028 36.7204 118.632 36.6073C118.745 37.0032 118.859 37.3426 118.802 37.6254C118.519 37.6254 118.123 37.6254 117.671 37.3426C117.671 37.3991 117.671 37.4557 117.727 37.5123C118.067 37.7385 118.463 38.0779 118.632 38.191C116.879 38.9829 114.39 38.6435 114.334 38.6435C114.22 38.6435 114.107 38.587 113.994 38.587C113.994 38.6435 113.938 38.7001 113.938 38.7567C114.107 39.1526 114.503 40.1142 114.56 40.2838C115.635 40.7929 116.653 41.1323 118.236 40.8495C118.236 40.8495 118.519 40.8495 119.198 40.6232C119.877 40.397 121.178 39.6617 122.139 38.7001C123.384 37.5688 124.119 36.3245 124.345 35.872C126.268 32.1388 126.551 26.5957 126.551 24.3332C126.495 23.4282 126.495 23.0322 126.495 23.0322Z" fill="black"/>
<path d="M0 26.7088H1.92313C2.71501 26.7088 3.28064 26.9916 3.56345 27.6704C3.7897 28.1794 3.84626 29.4238 3.84626 29.6501C3.84626 30.951 3.73314 31.7429 3.45032 32.1388C3.11095 32.6479 2.48876 32.9307 1.41407 32.9307H0V26.7088ZM0.791878 32.252H1.52719C2.60188 32.252 3.05438 31.856 3.05438 30.3854V29.141C3.05438 27.8966 2.65845 27.4441 1.86657 27.4441H0.791878V32.252Z" fill="black"/>
<path d="M5.26025 32.9307V26.7088H8.48433V27.3876H6.05213V29.3673H8.31464V30.046H6.05213V32.1954H8.48433V32.8742H5.26025V32.9307Z" fill="black"/>
<path d="M9.67212 32.9307V26.7088H11.5387C12.3871 26.7088 13.2921 26.9916 13.2921 28.4623C13.2921 29.8763 12.2174 30.1591 11.5387 30.1591H10.464V32.8742H9.67212V32.9307ZM10.464 29.4804H11.3124C11.6518 29.4804 12.3871 29.3673 12.3871 28.4057C12.3871 27.4441 11.7084 27.3876 11.5387 27.3876H10.464V29.4804Z" fill="black"/>
<path d="M15.3284 26.7088H16.3465L18.3828 32.9307H17.4778L17.0253 31.4601H14.6497L14.1972 32.9307H13.4053L15.3284 26.7088ZM15.7809 27.4441L14.8193 30.7813H16.799L15.7809 27.4441Z" fill="black"/>
<path d="M19.91 30.046V32.8742H19.1182V26.6523H21.2675C22.3422 26.6523 22.7382 27.4441 22.7382 28.1795C22.7382 28.9148 22.3422 29.4804 21.6069 29.5935C22.3422 29.7067 22.5685 29.9329 22.6251 31.1773C22.6251 31.4601 22.7382 32.4217 22.8513 32.8176H22.0029C21.7766 32.3651 21.8332 31.5732 21.7766 30.7813C21.72 30.046 21.0979 29.9895 20.815 29.9895H19.91V30.046ZM19.91 29.3673H21.0979C21.6635 29.3673 21.9463 28.8582 21.9463 28.3491C21.9463 27.8966 21.72 27.3876 21.0979 27.3876H19.91V29.3673Z" fill="black"/>
<path d="M27.4329 26.7088V27.3876H25.7925V32.9307H25.0007V27.3876H23.3604V26.7088H27.4329Z" fill="black"/>
<path d="M28.9602 32.9307H28.2249V26.7088H29.5258L31.1095 31.9126L32.6933 26.7088H33.9942V32.9307H33.2024V27.3876L31.4489 32.9307H30.7136L29.0167 27.3876V32.9307H28.9602Z" fill="black"/>
<path d="M35.4082 32.9307V26.7088H38.6323V27.3876H36.2001V29.3673H38.4626V30.046H36.2001V32.1954H38.6323V32.8742H35.4082V32.9307Z" fill="black"/>
<path d="M44.0059 26.7088V32.9307H42.9312L40.4424 27.5573V32.9307H39.7637V26.7088H40.8949L43.3271 32.0257V26.7088H44.0059Z" fill="black"/>
<path d="M48.9268 26.7088V27.3876H47.2864V32.9307H46.4946V27.3876H44.8542V26.7088H48.9268Z" fill="black"/>
<path d="M51.5852 30.6682V28.6319C51.5852 27.3876 52.2074 26.5957 53.5649 26.5957C54.8658 26.5957 55.5446 27.3876 55.5446 28.6319V30.6682C55.5446 32.3651 54.9224 33.0438 53.5649 33.0438C52.264 33.0438 51.5852 32.3651 51.5852 30.6682ZM54.6962 30.6682V28.5754C54.6962 27.2744 53.7912 27.2179 53.5649 27.2179C53.3386 27.2179 52.4336 27.2744 52.4336 28.5754V30.6682C52.4336 32.0257 52.8296 32.3651 53.5649 32.3651C54.3002 32.3651 54.6962 32.0257 54.6962 30.6682Z" fill="black"/>
<path d="M56.8455 32.9307V26.7088H59.8998V27.3876H57.6373V29.3673H59.7867V30.046H57.6373V32.8742H56.8455V32.9307Z" fill="black"/>
<path d="M62.6714 32.9307V26.7088H63.4633V29.3673H65.6126V26.7088H66.4045V32.9307H65.6126V30.1026H63.4633V32.9307H62.6714Z" fill="black"/>
<path d="M67.8752 32.9307V26.7088H71.0993V27.3876H68.6671V29.3673H70.9296V30.046H68.6671V32.1954H71.0993V32.8742H67.8752V32.9307Z" fill="black"/>
<path d="M73.5879 26.7088H74.6061L76.6423 32.9307H75.7373L75.2848 31.4601H72.9092L72.4567 32.9307H71.6648L73.5879 26.7088ZM74.0404 27.4441L73.0789 30.7813H75.0586L74.0404 27.4441Z" fill="black"/>
<path d="M77.4343 32.9307V26.7088H78.2262V32.252H80.4887V32.9307H77.4343Z" fill="black"/>
<path d="M84.2219 26.7088V27.3876H82.5816V32.9307H81.7897V27.3876H80.1494V26.7088H84.2219Z" fill="black"/>
<path d="M85.0703 32.9307V26.7088H85.8622V29.3673H88.0116V26.7088H88.8035V32.9307H88.0116V30.1026H85.8622V32.9307H85.0703Z" fill="black"/>
<path d="M3.05447 14.3781C3.1676 14.3781 3.28073 14.3216 3.39385 14.2085C3.50698 14.0953 3.56354 13.9822 3.56354 13.8691C3.56354 13.756 3.50698 13.6428 3.39385 13.5297C3.28073 13.4166 3.1676 13.36 3.05447 13.36C2.94135 13.36 2.82822 13.4166 2.7151 13.5297C2.60197 13.6428 2.54541 13.756 2.54541 13.8691C2.54541 13.9822 2.60197 14.0953 2.7151 14.2085C2.77166 14.3216 2.88479 14.3781 3.05447 14.3781Z" fill="black"/>
<path d="M1.41409 14.3781C1.52722 14.3781 1.64034 14.3216 1.75347 14.2085C1.8666 14.0953 1.92316 13.9822 1.92316 13.8691C1.92316 13.756 1.8666 13.6428 1.75347 13.5297C1.64034 13.4166 1.52722 13.36 1.41409 13.36C1.30097 13.36 1.18784 13.4166 1.07472 13.5297C0.961592 13.6428 0.905029 13.756 0.905029 13.8691C0.905029 13.9822 0.961592 14.0953 1.07472 14.2085C1.18784 14.3216 1.24441 14.3781 1.41409 14.3781Z" fill="black"/>
<path d="M46.7773 12.6813V19.5819H46.0986H43.4967H40.8948H38.2929H37.6142V15.3963H37.2183C36.5395 15.4528 35.9173 15.5094 35.3517 15.6791C34.7861 15.8488 34.3335 16.0185 33.9376 16.2447C33.5417 16.471 33.2023 16.7538 32.9195 17.0366C32.6367 17.3194 32.4104 17.6022 32.2407 17.885V16.471H31.3923V19.5819H30.5438H27.942H25.3401H22.7382H20.0798H19.8535C19.7404 19.5819 19.6838 19.5819 19.5707 19.5253C19.5141 19.5253 19.4576 19.4688 19.401 19.4122C19.3444 19.3557 19.2879 19.3557 19.2879 19.2991C19.2313 19.2425 19.2313 19.1294 19.1748 19.0163C19.1182 18.9032 19.1182 18.6769 19.0616 18.4507C19.0051 18.2244 19.0051 17.9416 18.9485 17.5457C18.8354 16.075 18.1566 15.2831 16.8557 15.2831C16.5729 15.2831 16.2335 15.3397 16.0072 15.4528C15.7244 15.566 15.4982 15.6791 15.3285 15.7922L15.781 16.4144C16.1204 16.1881 16.5163 16.075 16.8557 16.075C17.0254 16.075 17.1385 16.075 17.3082 16.1316C17.4779 16.1881 17.591 16.2447 17.7041 16.3013C17.8172 16.4144 17.9304 16.5275 18.0435 16.7538C18.1566 16.98 18.2132 17.2628 18.2132 17.6022C18.2697 18.1113 18.2697 18.5072 18.3263 18.79C18.3829 19.1294 18.4394 19.3557 18.5526 19.5819H14.7629H12.161H9.55909H6.95721H4.2422H3.7897C3.67657 19.5819 3.62001 19.5253 3.62001 19.3557V15.0569C3.39376 15.1135 3.05438 15.2266 2.65845 15.3963C2.20594 15.6225 1.81001 15.8488 1.41407 16.075C1.01813 16.3578 0.678752 16.6972 0.395939 17.0931C0.113125 17.4891 0 17.9416 0 18.5072C0 18.7335 0.0565627 18.9032 0.113125 19.1294C0.169688 19.3557 0.282814 19.5253 0.452502 19.7516C0.62219 19.9213 0.84844 20.091 1.18782 20.2607C1.47063 20.3738 1.86657 20.4869 2.37563 20.4869L2.4322 19.7516C1.86657 19.695 1.47063 19.5819 1.18782 19.4122C0.905003 19.2425 0.791878 18.9597 0.791878 18.5072C0.791878 18.2244 0.84844 17.9416 1.01813 17.6588C1.18782 17.4325 1.3575 17.2063 1.52719 17.0366C1.75344 16.8669 1.97969 16.6972 2.20594 16.5841C2.4322 16.471 2.65845 16.3578 2.82813 16.2447V19.4122C2.82813 19.695 2.8847 19.9778 3.05438 20.1475C3.22407 20.3172 3.39376 20.3738 3.67657 20.3738H4.2422H6.84409H9.44597H12.0479H14.6497H20.0798H22.6816H25.2835H27.8854H30.4873H38.1798H40.7817H43.3836H46.0986H47.5127V12.6813H46.7773ZM36.8223 19.5819H32.1842C32.2407 19.3557 32.3539 19.0728 32.5235 18.7335C32.6932 18.3941 32.9195 17.9982 33.3154 17.6588C33.6548 17.3194 34.1073 16.98 34.6729 16.6972C35.2386 16.4144 35.9739 16.2447 36.8223 16.1316V19.5819Z" fill="black"/>
<path d="M48.7004 12.7378H49.4358V20.3738H48.7004V12.7378Z" fill="black"/>
<path d="M56.3365 20.3738H55.5446C55.3183 20.3738 55.0355 20.3172 54.6962 20.2607C54.3568 20.2041 54.074 20.091 53.7912 19.9213C53.5083 19.7516 53.2821 19.5819 53.1124 19.2991C52.9427 19.0163 52.8296 18.7335 52.8296 18.3375C52.8296 17.9982 52.8862 17.6588 53.0558 17.376C53.169 17.0932 53.3387 16.8103 53.5649 16.5841C53.7912 16.3578 54.0174 16.1316 54.3002 15.9619C54.583 15.7922 54.8093 15.6225 55.0921 15.5094C55.3749 15.3963 55.6012 15.2831 55.8274 15.2266C56.0537 15.17 56.2233 15.1135 56.393 15.0569V20.3738H56.3365ZM55.5446 19.5819V16.1882C55.3749 16.2447 55.1487 16.3578 54.9224 16.471C54.6962 16.5841 54.4699 16.7538 54.2437 16.9235C54.0174 17.0932 53.8477 17.3194 53.7346 17.5457C53.5649 17.7719 53.5083 18.0547 53.5083 18.3375C53.5083 18.5638 53.5649 18.7335 53.678 18.9032C53.7912 19.0728 53.9608 19.186 54.1305 19.2991C54.3002 19.4122 54.5265 19.4688 54.7527 19.5253C54.979 19.5819 55.2052 19.5819 55.3749 19.5819H55.5446ZM54.7527 13.8691C54.7527 13.9822 54.6962 14.0953 54.583 14.2085C54.4699 14.3216 54.3568 14.3781 54.2437 14.3781C54.1305 14.3781 54.0174 14.3216 53.9043 14.2085C53.7912 14.0953 53.7346 13.9822 53.7346 13.8691C53.7346 13.756 53.7912 13.6428 53.9043 13.5297C54.0174 13.4166 54.1305 13.36 54.2437 13.36C54.3568 13.36 54.4699 13.4166 54.583 13.5297C54.7527 13.6428 54.7527 13.756 54.7527 13.8691ZM56.393 13.8691C56.393 13.9822 56.3365 14.0953 56.2234 14.2085C56.1102 14.3216 55.9971 14.3781 55.884 14.3781C55.7709 14.3781 55.6577 14.3216 55.5446 14.2085C55.4315 14.0953 55.3749 13.9822 55.3749 13.8691C55.3749 13.756 55.4315 13.6428 55.5446 13.5297C55.6577 13.4166 55.7709 13.36 55.884 13.36C55.9971 13.36 56.1102 13.4166 56.2234 13.5297C56.393 13.6428 56.393 13.756 56.393 13.8691Z" fill="black"/>
<path d="M81.0543 14.6609C80.8846 14.6044 80.828 14.4347 80.828 14.265C80.828 14.1519 80.8846 14.0388 80.9411 13.9822C80.9977 13.9256 81.1108 13.9256 81.224 13.9256C81.3936 13.9256 81.6199 13.9822 81.8461 14.0953L82.0158 13.6994C81.733 13.5863 81.5068 13.5297 81.224 13.5297C81.0543 13.5297 80.828 13.5863 80.6583 13.6994C80.4886 13.8125 80.4321 13.9822 80.4321 14.265C80.4321 14.3781 80.4321 14.4913 80.4886 14.6044C80.5452 14.7175 80.5452 14.7741 80.6018 14.7741H80.0361V15.17H81.9593V14.7741H81.6199C81.3936 14.8306 81.224 14.7741 81.0543 14.6609Z" fill="black"/>
<path d="M80.9978 19.5819H79.5272H76.9253H74.3234H72.1175H69.5156H66.9137H64.3118H61.71H59.1081H58.4293V15.8488H57.694V20.6566C57.694 20.9394 57.694 21.1657 57.6374 21.3919C57.6374 21.6182 57.5809 21.8444 57.4678 22.0141C57.4112 22.1838 57.2415 22.3535 57.0718 22.4666C56.9021 22.5797 56.6759 22.6363 56.3931 22.6363V23.3716C56.8456 23.3716 57.1849 23.2585 57.4678 23.1454C57.7506 22.9757 57.9203 22.7494 58.0899 22.4666C58.2031 22.1838 58.3162 21.901 58.3728 21.5616C58.4293 21.2222 58.4293 20.8828 58.4293 20.6V20.2607H59.1081H61.71H64.3118H66.9137H69.5156H72.1175H74.2669H76.8688H79.4706H81.6766V15.7922H80.9413V19.5819H80.9978Z" fill="black"/>
<path d="M82.9209 12.7378H83.6562V20.3738H82.9209V12.7378Z" fill="black"/>
<path d="M84.6743 16.0185C84.844 15.8488 85.1268 15.6791 85.4096 15.566C85.6924 15.3963 86.0884 15.3397 86.4843 15.3397C86.8803 15.3397 87.2196 15.3963 87.5025 15.566C87.7853 15.7357 88.0115 15.9619 88.2378 16.1882C88.4075 16.471 88.5771 16.7538 88.6903 17.0932C88.8034 17.4325 88.86 17.7719 88.86 18.1113C88.86 18.3941 88.86 18.6204 88.8034 18.8466C88.7468 19.0729 88.6903 19.2991 88.6337 19.5254C88.5771 19.695 88.5206 19.8647 88.464 20.0344C88.4075 20.1475 88.3509 20.2607 88.2943 20.3738H84.6743V19.6385H87.7853C87.8418 19.4688 87.8984 19.2991 87.955 19.0729C88.0115 18.8466 88.0681 18.5072 88.0681 18.1679C88.0681 17.885 88.0115 17.6588 87.955 17.376C87.8984 17.1497 87.7853 16.9235 87.6721 16.7538C87.559 16.5841 87.3893 16.4144 87.1631 16.3013C86.9368 16.1882 86.7671 16.1316 86.4843 16.1316C86.2581 16.1316 86.0884 16.1882 85.8621 16.2447C85.6359 16.3013 85.4096 16.471 85.1268 16.6407L84.6743 16.0185Z" fill="black"/>
</svg>
