<svg xmlns="http://www.w3.org/2000/svg" width="55.959" height="56.348" viewBox="0 0 55.959 56.348">
  <g id="Group_7662" data-name="Group 7662" transform="translate(-1043.475 -363.134)">
    <path id="Path_966" data-name="Path 966" d="M781.961,2965.96H758.49l11.735-23.47Z" transform="translate(316.45 -2547.502)" fill="none" stroke="#e53535" stroke-linecap="round" stroke-linejoin="round" stroke-miterlimit="10" stroke-width="2"/>
    <line id="Line_3" data-name="Line 3" y2="6.407" transform="translate(1086.676 404.588)" fill="none" stroke="#e53535" stroke-linecap="round" stroke-linejoin="round" stroke-miterlimit="10" stroke-width="2"/>
    <g id="Group_257" data-name="Group 257" transform="translate(1085.595 413.131)">
      <g id="Group_7661" data-name="Group 7661" transform="translate(0)">
        <path id="Path_10896" data-name="Path 10896" d="M764.11,2950.22a1.077,1.077,0,0,0-1.08,1.079,1.068,1.068,0,1,0,1.08-1.079Z" transform="translate(-763.03 -2950.22)" fill="#e53535"/>
      </g>
    </g>
    <path id="Path_967" data-name="Path 967" d="M757.55,2929.51c7.041,7.628,10.562,16.406,10.562,25.653" transform="translate(315.184 -2564.986)" fill="none" stroke="#e53535" stroke-linejoin="round" stroke-miterlimit="10" stroke-width="2"/>
    <line id="Line_4" data-name="Line 4" x2="23.471" transform="translate(1048.089 404.376)" fill="none" stroke="#e53535" stroke-linecap="round" stroke-linejoin="round" stroke-miterlimit="10" stroke-width="2"/>
    <line id="Line_5" data-name="Line 5" x2="44.923" transform="translate(1048.935 376.212)" fill="none" stroke="#e53535" stroke-linejoin="round" stroke-miterlimit="10" stroke-width="2"/>
    <path id="Path_968" data-name="Path 968" d="M770.835,2929.547c-14.082,15.256-13.8,35.159.282,53.935l-1.056-.094c-13.848-1.221-24.55-13.284-24.55-27.484,0-14.575,11.454-25.794,25.865-26.381.4-.023.8-.023,1.2-.023a26.869,26.869,0,0,1,26.9,24.55l-.047,1.221H745.51" transform="translate(298.965 -2565)" fill="none" stroke="#e53535" stroke-linecap="round" stroke-linejoin="round" stroke-miterlimit="10" stroke-width="2"/>
  </g>
</svg>
