<svg fill="#000000" xmlns="http://www.w3.org/2000/svg"  viewBox="0 0 24 24" width="24px" height="24px"><path d="M 12.5 2 A 3 3 0 0 0 9.7089844 6.09375 C 9.4804148 6.0378189 9.2455412 6 9 6 L 4 6 C 2.346 6 1 7.346 1 9 L 1 14 C 1 15.654 2.346 17 4 17 L 9 17 C 10.654 17 12 15.654 12 14 L 12 9 C 12 8.6159715 11.921192 8.2518913 11.789062 7.9140625 A 3 3 0 0 0 12.5 8 A 3 3 0 0 0 12.5 2 z M 19 4 A 2 2 0 0 0 19 8 A 2 2 0 0 0 19 4 z M 4.5 9 L 8.5 9 C 8.776 9 9 9.224 9 9.5 C 9 9.776 8.776 10 8.5 10 L 7 10 L 7 14 C 7 14.276 6.776 14.5 6.5 14.5 C 6.224 14.5 6 14.276 6 14 L 6 10 L 4.5 10 C 4.224 10 4 9.776 4 9.5 C 4 9.224 4.224 9 4.5 9 z M 15 9 C 14.448 9 14 9.448 14 10 L 14 14 C 14 16.761 11.761 19 9 19 C 8.369 19 8.0339375 19.755703 8.4609375 20.220703 C 9.4649375 21.313703 10.903 22 12.5 22 C 15.24 22 17.529453 20.040312 17.939453 17.320312 C 17.979453 17.050312 18 16.78 18 16.5 L 18 11 C 18 9.9 17.1 9 16 9 L 15 9 z M 20.888672 9 C 20.322672 9 19.870625 9.46625 19.890625 10.03125 C 19.963625 12.09325 20 16.5 20 16.5 C 20 16.618 19.974547 16.859438 19.935547 17.148438 C 19.812547 18.048438 20.859594 18.653266 21.558594 18.072266 C 22.439594 17.340266 23 16.237 23 15 L 23 11 C 23 9.9 22.1 9 21 9 L 20.888672 9 z"/></svg>